<svg width="36" height="47" viewBox="0 0 36 47" fill="none" xmlns="http://www.w3.org/2000/svg">
<path d="M0.931818 47V38.9091L17.9091 24.0455C19.1818 22.8939 20.2652 21.8409 21.1591 20.8864C22.053 19.9167 22.7348 18.947 23.2045 17.9773C23.6742 16.9924 23.9091 15.9242 23.9091 14.7727C23.9091 13.4848 23.6288 12.3864 23.0682 11.4773C22.5076 10.553 21.7348 9.84091 20.75 9.34091C19.7652 8.84091 18.6364 8.59091 17.3636 8.59091C16.0758 8.59091 14.947 8.85606 13.9773 9.38636C13.0076 9.90151 12.25 10.6515 11.7045 11.6364C11.1742 12.6212 10.9091 13.8182 10.9091 15.2273H0.25C0.25 12.0606 0.962121 9.32576 2.38636 7.02273C3.81061 4.7197 5.81061 2.94697 8.38636 1.70454C10.9773 0.446968 13.9848 -0.18182 17.4091 -0.18182C20.9394 -0.18182 24.0076 0.409089 26.6136 1.59091C29.2197 2.77273 31.2348 4.42424 32.6591 6.54545C34.0985 8.65151 34.8182 11.0985 34.8182 13.8864C34.8182 15.6591 34.4621 17.4167 33.75 19.1591C33.0379 20.9015 31.7576 22.8258 29.9091 24.9318C28.0758 27.0379 25.4697 29.5606 22.0909 32.5L16.5227 37.6364V37.9318H35.3864V47H0.931818Z" fill="url(#paint0_linear_340_2494)"/>
<defs>
<linearGradient id="paint0_linear_340_2494" x1="20" y1="-16" x2="20" y2="64" gradientUnits="userSpaceOnUse">
<stop stop-color="#7E3AF2"/>
<stop offset="1" stop-color="#7E3AF2" stop-opacity="0"/>
</linearGradient>
</defs>
</svg>
