<svg width="38" height="48" viewBox="0 0 38 48" fill="none" xmlns="http://www.w3.org/2000/svg">
<path d="M19.1364 47.6364C15.5909 47.6364 12.447 47.0303 9.70455 45.8182C6.97727 44.5909 4.82576 42.9015 3.25 40.75C1.67424 38.5985 0.871212 36.1212 0.840909 33.3182H12.1591C12.2045 34.3333 12.5303 35.2348 13.1364 36.0227C13.7424 36.7955 14.5682 37.4015 15.6136 37.8409C16.6591 38.2803 17.8485 38.5 19.1818 38.5C20.5152 38.5 21.6894 38.2652 22.7045 37.7955C23.7348 37.3106 24.5379 36.6515 25.1136 35.8182C25.6894 34.9697 25.9697 34 25.9545 32.9091C25.9697 31.8182 25.6591 30.8485 25.0227 30C24.3864 29.1515 23.4848 28.4924 22.3182 28.0227C21.1667 27.553 19.803 27.3182 18.2273 27.3182H13.7045V19.3182H18.2273C19.6061 19.3182 20.8182 19.0909 21.8636 18.6364C22.9242 18.1818 23.75 17.5455 24.3409 16.7273C24.9318 15.8939 25.2197 14.9394 25.2045 13.8636C25.2197 12.8182 24.9697 11.9015 24.4545 11.1136C23.9545 10.3106 23.25 9.68939 22.3409 9.25C21.447 8.81061 20.4091 8.59091 19.2273 8.59091C17.9848 8.59091 16.8561 8.81061 15.8409 9.25C14.8409 9.68939 14.0455 10.3106 13.4545 11.1136C12.8636 11.9167 12.553 12.8485 12.5227 13.9091H1.77273C1.80303 11.1364 2.57576 8.69697 4.09091 6.59091C5.60606 4.46969 7.66667 2.8106 10.2727 1.61364C12.8939 0.416665 15.8788 -0.18182 19.2273 -0.18182C22.5606 -0.18182 25.4924 0.401513 28.0227 1.56818C30.553 2.73485 32.5227 4.32576 33.9318 6.34091C35.3409 8.34091 36.0455 10.6061 36.0455 13.1364C36.0606 15.7576 35.2045 17.9167 33.4773 19.6136C31.7652 21.3106 29.5606 22.3561 26.8636 22.75V23.1136C30.4697 23.5379 33.1894 24.7045 35.0227 26.6136C36.8712 28.5227 37.7879 30.9091 37.7727 33.7727C37.7727 36.4697 36.9773 38.8636 35.3864 40.9545C33.8106 43.0303 31.6136 44.6667 28.7955 45.8636C25.9924 47.0455 22.7727 47.6364 19.1364 47.6364Z" fill="url(#paint0_linear_340_2499)"/>
<defs>
<linearGradient id="paint0_linear_340_2499" x1="20.5" y1="-16" x2="20.5" y2="64" gradientUnits="userSpaceOnUse">
<stop stop-color="#7E3AF2"/>
<stop offset="1" stop-color="#7E3AF2" stop-opacity="0"/>
</linearGradient>
</defs>
</svg>
