<svg width="608" height="461" viewBox="0 0 608 461" fill="none" xmlns="http://www.w3.org/2000/svg">
<path d="M135.206 306.836C125.252 309.539 96.9786 318.458 92.7086 319.923C92.7086 289.958 97.5092 69.0802 97.9893 47.048C97.9706 46.9854 97.9323 46.9305 97.8799 46.8915C97.8276 46.8525 97.764 46.8314 97.6987 46.8314C97.6334 46.8314 97.5699 46.8525 97.5175 46.8915C97.4652 46.9305 97.4268 46.9854 97.4081 47.048C96.0943 66.6041 91.4453 307.29 91.5464 320.277C87.529 321.642 69.3121 327.857 64.183 329.575C63.8798 329.575 64.0062 330.156 64.183 330.055C73.102 327.301 91.2179 321.263 91.42 321.212C91.42 330.005 91.5211 338.806 91.7232 347.615C91.7232 347.723 91.7658 347.825 91.8416 347.901C91.9175 347.977 92.0203 348.02 92.1275 348.02C92.2347 348.02 92.3375 347.977 92.4134 347.901C92.4892 347.825 92.5318 347.723 92.5318 347.615V320.808C100.895 318.029 129.446 309.438 135.358 307.871C135.459 307.818 135.541 307.734 135.593 307.632C135.645 307.529 135.664 307.414 135.647 307.3C135.631 307.187 135.579 307.081 135.5 306.998C135.422 306.915 135.319 306.858 135.206 306.836ZM332.788 256.455C332.788 256.455 326.775 282.428 311.11 274.141C295.445 265.854 305.577 249.102 305.829 232.73C306.082 216.357 293.196 205.189 293.196 205.189C293.196 205.189 297.062 236.115 278.289 240.31C259.516 244.504 244.104 226.969 249.511 202.157C254.918 177.346 258.556 163.525 258.405 154.859C258.253 146.193 255.044 143.312 255.044 143.312C255.044 143.312 257.824 162.843 236.271 173.632C215.275 184.143 186.674 202.031 186.194 236.494C185.714 271.614 193.521 282.201 185.966 283.641C174.597 285.814 181.621 267.749 178.26 255.469C177.153 251.78 175.329 248.346 172.892 245.363C170.455 242.38 167.454 239.907 164.061 238.086C164.061 238.086 174.874 255.545 163.328 273.13C151.781 290.716 126.262 312.268 159.715 341.678C159.715 341.678 156.834 330.737 163.1 323.764C169.366 316.79 172.12 315.451 175.178 308.352C176.432 305.884 177.155 303.182 177.3 300.418C177.3 300.418 193.192 321.844 205.927 309.564C218.661 297.285 211.561 280.18 218.13 271.665C224.699 263.15 227.352 263.479 227.352 263.479C227.352 263.479 218.13 275.985 228.565 293.268C239 310.55 255.044 293.495 258.405 280.634C261.765 267.774 273.211 270.932 273.211 270.932C273.211 270.932 260.097 274.141 262.877 286.496C265.656 298.851 268.511 299.129 268.511 299.129C268.511 299.129 271.038 288.315 283.671 291.196C296.304 294.076 302.494 305.875 309.821 304.435C317.149 302.995 319.524 293.849 319.524 293.849C319.524 293.849 328.923 308.301 327.735 315.982C326.548 323.663 319.524 332.582 319.524 332.582C325.965 332.535 332.205 330.329 337.243 326.316C342.282 322.303 345.829 316.716 347.317 310.449C353.734 287.482 332.788 256.455 332.788 256.455Z" fill="#7E3AF2"/>
<path d="M315.281 252.665C316.49 252.136 317.579 251.366 318.481 250.403C319.383 249.44 320.08 248.304 320.529 247.063C320.978 245.822 321.17 244.503 321.093 243.185C321.016 241.868 320.672 240.58 320.082 239.4C318.568 237.02 317.625 234.322 317.328 231.517C314.654 234.717 313.054 238.677 312.754 242.836C312.022 250.188 315.281 252.665 315.281 252.665ZM269.979 162.818C269.018 156.855 277.003 155.592 275.916 147.279C274.83 138.966 268.336 138.259 268.336 138.259L269.979 141.443C271.596 144.651 271.343 149.629 268.892 155.238C266.441 160.847 269.979 162.818 269.979 162.818Z" fill="#7E3AF2"/>
<path d="M367.629 233.968C363.525 234.829 359.489 235.986 355.552 237.429V225.403H355.931C358.457 225.403 357.396 203.067 355.779 195.336C356.386 129.644 357.902 10.8922 357.902 9.62889C357.902 9.54848 357.87 9.47136 357.813 9.4145C357.756 9.35764 357.679 9.3257 357.598 9.3257C357.518 9.3257 357.441 9.35764 357.384 9.4145C357.327 9.47136 357.295 9.54848 357.295 9.62889C354.769 76.9634 354.465 148.164 354.516 192.708C353.202 192.531 350.246 194.704 346.936 197.61L302.619 96.3932C303.402 65.3662 304.009 31.5347 304.009 1.06364C304.009 0.709908 303.453 0.709908 303.428 1.06364C303.251 4.19665 302.164 49.0695 301.078 95.2057L246.402 83.9622C247.337 54.2491 248.246 25.4203 248.297 20.7966C248.297 20.5944 247.993 20.5944 247.968 20.7966C247.513 31.3831 246.25 52.0762 245.164 83.9622L194.783 92.9064C194.934 60.2877 194.783 34.5414 194.783 33.7076C194.768 33.6689 194.743 33.6356 194.709 33.612C194.675 33.5885 194.635 33.5758 194.593 33.5758C194.552 33.5758 194.512 33.5885 194.478 33.612C194.444 33.6356 194.418 33.6689 194.404 33.7076C194.227 36.2342 193.873 61.9048 193.494 92.4011L144.857 64.9872C144.983 53.8954 145.059 47.0987 145.059 46.6945C145.059 46.6447 145.049 46.5954 145.03 46.5494C145.011 46.5035 144.983 46.4617 144.948 46.4265C144.913 46.3913 144.871 46.3634 144.825 46.3443C144.779 46.3253 144.73 46.3155 144.68 46.3155C144.63 46.3155 144.581 46.3253 144.535 46.3443C144.489 46.3634 144.447 46.3913 144.412 46.4265C144.377 46.4617 144.349 46.5035 144.33 46.5494C144.311 46.5954 144.301 46.6447 144.301 46.6945C144.301 49.2211 144.301 55.5882 144.124 64.8104L103.698 63.9513C103.011 63.9312 102.344 64.1848 101.844 64.6562C101.345 65.1277 101.052 65.7785 101.032 66.4653C101.012 67.1522 101.266 67.8189 101.737 68.3188C102.209 68.8187 102.859 69.1108 103.546 69.1309L143.972 70.2931C143.214 131.437 140.839 285.056 140.789 286.446C140.789 286.901 141.471 286.901 141.471 286.446C142.002 274.823 143.998 128.961 144.705 70.5963L193.418 98.3892C192.837 145.511 192.231 201.223 192.206 202.132C192.206 202.461 192.711 202.461 192.736 202.132C194.05 175.199 194.581 133.433 194.757 98.2123L244.987 89.3944C244.431 107.081 243.926 127.951 243.673 152.257C243.673 152.56 244.153 152.56 244.153 152.257C244.431 144.349 245.341 117.036 246.225 89.2681L300.926 101.522C299.764 150.488 298.652 199.126 298.627 199.884C298.627 199.971 298.662 200.054 298.723 200.116C298.785 200.178 298.868 200.212 298.955 200.212C299.043 200.212 299.126 200.178 299.188 200.116C299.249 200.054 299.284 199.971 299.284 199.884C299.537 192.506 301.154 152.51 302.417 104.251L342.843 201.475C337.79 206.15 333.393 211.001 333.393 211.001C332.332 213.881 349.69 223.028 354.642 225.125V237.758C352.773 238.389 336.804 244.175 330.513 245.843C330.445 245.871 330.39 245.923 330.358 245.988C330.325 246.054 330.318 246.129 330.336 246.2C330.354 246.27 330.398 246.332 330.458 246.373C330.519 246.415 330.592 246.433 330.665 246.424C336.981 244.858 364.724 235.888 367.654 234.625C368.084 234.448 367.932 233.943 367.629 233.968ZM240.717 332.178C240.039 332.863 239.546 333.71 239.285 334.638C239.025 335.566 239.004 336.545 239.226 337.484C239.507 338.31 239.971 339.061 240.584 339.683C241.196 340.304 241.941 340.779 242.763 341.071C245.964 342.026 249.312 342.386 252.642 342.133C252.642 342.133 264.012 351.481 264.315 351.759C261.789 353.856 258.277 352.593 255.422 352.416C254.942 352.416 254.942 353.048 255.422 353.199C256.99 353.858 258.694 354.126 260.388 353.98C262.082 353.835 263.716 353.281 265.149 352.365C265.76 352.884 266.401 353.364 267.069 353.806C267.127 353.831 267.191 353.837 267.251 353.821C267.312 353.806 267.365 353.77 267.403 353.721C267.441 353.671 267.461 353.61 267.46 353.547C267.459 353.485 267.437 353.425 267.398 353.376C266.873 352.822 266.316 352.299 265.73 351.81C266.257 351.177 266.636 350.434 266.838 349.636C267.04 348.838 267.061 348.005 266.898 347.197C266.736 346.39 266.395 345.63 265.9 344.972C265.404 344.314 264.768 343.775 264.038 343.396C260.592 341.666 256.738 340.914 252.895 341.223C249.257 338.242 245.618 335.26 241.93 332.304C242.269 332.03 242.643 331.8 243.041 331.622C244.303 331.204 245.644 331.085 246.959 331.274C248.274 331.462 249.528 331.953 250.621 332.708C250.798 332.708 250.95 332.708 250.823 332.456C249.604 331.197 247.964 330.431 246.216 330.305C244.468 330.179 242.735 330.702 241.348 331.773L238.822 329.777C238.594 329.601 238.291 329.904 238.493 330.081L240.717 332.178ZM265.983 347.742C266.064 348.361 266.011 348.99 265.828 349.588C265.645 350.185 265.336 350.736 264.922 351.203L253.906 342.133C258.555 342.183 265.351 343.017 265.958 347.742H265.983ZM241.399 332.734C244.759 335.614 248.17 338.419 251.505 341.248C249.119 341.268 246.735 341.082 244.38 340.692C239.277 339.404 238.898 335.311 241.374 332.734H241.399Z" fill="#7E3AF2"/>
<path d="M386.454 398.375C382.74 395.166 330.06 356.534 325.285 353.3V349.106C325.285 349.055 276.874 313.076 276.571 313.152C270.002 314.845 187.659 335.892 182.353 337.483C182.305 337.493 182.26 337.513 182.222 337.544C182.184 337.574 182.153 337.613 182.134 337.658C182.114 337.703 182.105 337.751 182.108 337.8C182.111 337.849 182.126 337.896 182.151 337.938V339.808C179.903 340.541 151.301 348.803 151.301 349.131C151.301 354.386 152.059 364.973 152.059 365.024C151.402 365.024 133.413 368.662 133.337 368.839C133.261 369.016 133.11 383.089 133.489 385.893C133.489 386.02 228.212 460.227 228.389 460.202C231.547 459.393 272.756 446.457 276.394 445.547C276.508 445.512 276.605 445.435 276.666 445.333C276.727 445.23 276.747 445.108 276.723 444.991C276.521 443.829 276.42 442.692 276.293 441.53C276.293 441.53 283.267 444.486 283.494 444.41C296.254 440.494 328.973 430.084 332.536 428.871C332.735 428.742 332.879 428.544 332.94 428.315V425.258C332.94 425.258 337.438 427.128 337.64 427.052C350.273 422.454 382.235 411.741 385.646 410.478C385.745 410.443 385.828 410.371 385.875 410.276C385.922 410.182 385.93 410.073 385.898 409.972C386.126 409.315 386.454 400.725 386.555 398.729C386.579 398.667 386.583 398.599 386.564 398.535C386.546 398.471 386.507 398.415 386.454 398.375ZM385.444 398.375C384.736 398.527 354.77 407.168 352.395 408.052C352.244 406.688 352.395 395.419 352.395 395.419C351.612 394.408 333.345 379.981 330.363 377.581C333.42 376.949 346.256 372.528 349.768 371.669C357.449 377.379 383.346 397.036 385.444 398.476V398.375ZM319.751 421.266L291.403 429.073C291.857 427.178 291.125 413.206 291.125 413.029L320.181 405.121C320.13 405.778 319.499 420.938 319.625 421.367L319.751 421.266ZM290.872 412.145C290.417 411.513 258.43 387.991 254.792 385.287L273.565 380.436C272.75 380.902 272.108 381.618 271.735 382.479C271.361 383.34 271.276 384.298 271.493 385.211C272.023 387.435 274.474 389.405 279.073 389.431C280.311 389.431 281.599 389.304 282.863 389.178C283.317 389.582 289.937 395.116 292.969 397.415C290.575 398.238 287.99 398.335 285.541 397.693C285.468 397.684 285.395 397.702 285.334 397.744C285.274 397.785 285.231 397.847 285.212 397.917C285.194 397.988 285.201 398.063 285.234 398.129C285.267 398.194 285.322 398.246 285.389 398.274C288.111 399.141 291.05 399.034 293.702 397.971C294.485 398.577 295.268 399.209 296.077 399.79C296.885 400.371 297.087 399.31 296.582 398.931L294.611 397.39C295.347 396.877 295.893 396.137 296.167 395.283C296.441 394.43 296.427 393.51 296.127 392.665C295.016 389.33 291.226 388.041 288.042 387.864C286.444 387.815 284.846 387.916 283.267 388.167C281.928 387.03 276.218 381.977 274.651 380.588C275.586 380.082 282.635 378.061 285.01 377.379C285.01 377.379 318.235 403.403 319.6 404.06C319.751 404.06 319.953 404.06 319.852 403.807C319.094 402.721 288.598 378.844 286.198 377.076C292.666 375.357 317.174 368.561 317.932 368.359C317.932 368.359 350.096 394.787 351.031 395.394C340.798 398.527 298.78 410.073 290.746 412.246L290.872 412.145ZM209.388 397.87C208.479 397.87 199.282 399.664 198.347 399.866C198.499 397.086 199.358 383.518 199.459 382.836C202.516 382.432 215.124 380.31 215.983 380.057L217.095 380.992C214.771 381.028 212.462 381.359 210.222 381.977C210.222 381.977 209.338 397.263 209.262 397.971L209.388 397.87ZM209.388 398.35C209.388 398.956 209.388 399.537 209.186 400.118C208.984 400.699 221.213 410.225 222.754 411.488C220.834 411.943 204.613 416.845 194.405 417.224C193.319 416.39 173.864 400.826 165.299 393.802C168.331 393.448 184.602 389.86 184.602 389.86C185.916 390.871 194.86 397.945 197.917 400.624C201.737 400.165 205.519 399.439 209.237 398.451L209.388 398.35ZM210.727 382.584C210.727 382.584 217.095 381.725 218.029 381.75C218.029 381.75 229.374 391.477 229.475 391.452C237.56 389.658 245.797 387.586 253.832 385.514L289.71 412.423C285.541 413.535 257.95 421.165 257.874 421.241L210.727 382.584ZM263.433 382.154C263.18 382.154 229.627 390.871 229.475 391.124L229.728 373.437C240.87 371.264 251.886 368.536 262.877 365.63C262.498 367.07 263.003 380.941 263.281 382.255L263.433 382.154ZM293.929 374.195C292.059 374.701 272.124 379.981 263.989 382.104C263.989 380.79 263.736 366.944 263.534 365.605C263.534 365.605 285.187 359.667 294.864 357.09C294.788 357.797 293.55 371.466 293.929 374.195ZM273.994 381.068C275.434 382.609 280.74 387.435 281.852 388.395C279.69 388.768 277.472 388.656 275.358 388.066C271.19 386.702 271.19 382.887 273.944 381.068H273.994ZM284.101 389.128C286.44 388.768 288.831 388.932 291.099 389.608C295.294 391.073 296.355 395.09 293.626 396.96C290.67 394.56 284.303 389.279 284.126 389.128H284.101ZM325.714 365.529C325.512 362.8 325.234 355.271 325.259 354.235C333.117 359.844 341.051 365.352 348.858 371.062C345.573 371.997 332.915 376.115 329.833 377.202C328.493 376.115 319.726 369.016 318.286 368.384C320.585 367.727 322.884 367.07 325.108 366.236C325.31 366.186 325.765 365.782 325.739 365.529H325.714ZM324.981 365.529L294.46 373.993C294.46 371.264 295.268 357.621 295.496 356.989C295.698 356.989 317.402 351.304 324.4 349.763C324.249 352.289 325.007 365.579 325.007 365.579L324.981 365.529ZM276.571 313.885C282.534 318.938 320.964 346.731 323.895 348.954C314.395 351.077 304.996 353.477 295.597 355.978C292.742 353.831 251.356 321.465 250.673 320.984C252.012 320.732 269.345 316.209 276.571 313.885ZM249.688 321.465C250.951 322.677 291.403 354.311 294.485 356.458L262.725 365.049C259.896 362.775 219.596 332.632 216.614 329.979C227.732 327.133 238.756 324.294 249.688 321.465ZM215.402 330.282C218.459 332.43 260.35 364.215 261.917 365.251C257.798 366.337 236.019 371.77 229.248 373.185L182.53 338.14C187.28 337.18 214.997 330.282 215.402 330.181V330.282ZM182.227 340.667C182.379 344.634 182.505 348.247 182.657 352.466L215.023 379.577C214.442 379.577 202.036 381.573 198.827 382.255C198.6 382.255 152.287 349.409 152.287 349.409C157.491 348.095 180.004 341.172 182.227 340.566V340.667ZM134.752 369.142C135.08 369.142 151.478 365.857 152.287 365.756C152.287 365.756 179.397 386.146 184.223 389.81C180.964 390.062 167.674 392.791 164.212 393.145C160.877 390.391 136.268 370.178 134.752 369.142ZM165.476 410.553C165.476 409.189 164.743 396.783 164.566 394.08C166.436 395.621 185.891 411.438 193.799 417.704C193.799 417.704 194.633 432.282 194.734 433.495C193.546 432.636 174.041 417.476 165.501 410.553H165.476ZM195.214 418.133C204.676 416.621 214.054 414.622 223.31 412.145C224.826 413.333 253.326 434.885 255.777 436.603C251.229 437.689 228.894 442.743 228.818 442.743C217.246 435.163 206.154 426.724 195.239 418.133H195.214ZM228.666 459.494C228.666 459.494 228.869 443.501 228.944 443.374C230.991 443.096 251.356 438.321 255.979 437.285C257.019 437.666 258.011 438.166 258.935 438.776L274.752 434.228C275.46 437.74 275.106 441.353 275.712 444.84C272.781 445.901 232.153 458.205 228.692 459.494H228.666ZM259.517 438.144C259.517 438.144 258.961 427.456 258.658 421.948C269.168 419.018 279.687 416.12 290.215 413.257L290.998 429.175L259.517 438.144ZM332.081 428.038C325.714 429.958 287.133 442.237 283.696 443.349C283.494 439.61 282.863 431.929 282.812 431.878C282.761 431.828 317.275 422.782 332.309 417.982C332.106 418.79 332.132 426.446 332.106 428.113L332.081 428.038ZM320.231 421.14C320.231 420.761 320.585 405.551 320.711 404.868C324.35 403.883 344.942 398.148 351.561 396.177C351.282 401.38 351.476 406.598 352.143 411.766L320.231 421.14ZM352.8 412.423C352.743 411.137 352.617 409.855 352.421 408.583C354.593 408.431 384.736 399.815 385.545 399.487C385.545 401.281 385.039 409.265 385.14 409.972C372.76 414.571 341.177 424.98 337.994 426.143C337.994 423.136 338.17 416.516 338.17 416.516C338.17 416.516 352.774 412.549 352.8 412.423ZM442.823 39.9227V39.569C442.517 39.2136 442.111 38.96 441.657 38.8424C441.203 38.7247 440.724 38.7486 440.284 38.9108C439.844 39.073 439.465 39.3657 439.196 39.7498C438.927 40.1339 438.782 40.5909 438.781 41.0597C438.909 40.6651 439.134 40.3082 439.433 40.0208C439.733 39.7334 440.099 39.5242 440.498 39.4118C440.898 39.2994 441.319 39.2872 441.725 39.3763C442.13 39.4655 442.507 39.6531 442.823 39.9227ZM450.833 45.1023C450.788 45.0491 450.731 45.0063 450.668 44.977C450.605 44.9477 450.536 44.9325 450.466 44.9325C450.396 44.9325 450.328 44.9477 450.264 44.977C450.201 45.0063 450.145 45.0491 450.1 45.1023C450.092 46.0821 450.211 47.0587 450.454 48.0079C450.454 48.3617 451.11 48.2859 451.085 48.0079C451.124 47.0326 451.04 46.0562 450.833 45.1023ZM441.029 43.5358C440.996 43.4982 440.955 43.468 440.909 43.4474C440.864 43.4267 440.814 43.4161 440.764 43.4161C440.714 43.4161 440.664 43.4267 440.618 43.4474C440.573 43.468 440.532 43.4982 440.499 43.5358C440.263 44.7796 440.263 46.0567 440.499 47.3005C440.499 47.6037 441.08 47.5531 441.055 47.3005C441.158 46.0474 441.15 44.7874 441.029 43.5358ZM446.36 54.8551V54.653C443.354 54.653 443.303 53.9455 443.253 53.895C443.202 53.8444 444.996 49.3723 445.324 48.4122C445.324 48.2859 445.148 48.1848 445.097 48.4122C444.642 49.3218 442.217 54.2992 442.293 54.5266C442.52 55.1583 445.527 55.1078 446.36 54.8551ZM452.525 58.5187C452.824 58.9062 453.087 59.3206 453.309 59.7567C452.172 60.161 452.273 63.4456 454.016 63.2688C454.243 63.2639 454.461 63.1767 454.628 63.0232C454.795 62.8698 454.901 62.6607 454.926 62.435C454.976 61.2222 452.93 58.9482 452.525 58.5187ZM487.721 107.308C481.345 108.498 474.818 108.652 468.393 107.763V107.965C471.652 108.697 481.834 110.289 487.898 107.965C488.126 107.737 487.974 107.257 487.721 107.308ZM441.08 106.045C435.531 107.347 429.733 107.12 424.303 105.388C424.126 105.388 424.076 105.59 424.303 105.666C429.726 107.796 435.697 108.097 441.307 106.525C441.459 106.449 441.332 105.969 441.08 106.045ZM452.096 93.4114C450.302 94.5736 438.477 144.752 438.3 146.117C438.124 147.481 446.335 159.761 446.866 159.761C452.13 156.849 457.194 153.591 462.025 150.008C462.834 149.022 459.322 95.5843 458.867 94.2452C458.412 92.9061 452.096 93.4114 452.096 93.4114Z" fill="#7E3AF2"/>
<path d="M526.757 44.3191C515.084 36.2086 488.1 20.493 487.797 20.3667C487.493 20.2404 487.392 20.1646 484.234 22.3627C482.405 19.7426 480.16 17.4384 477.589 15.5409C476.674 14.988 475.626 14.6958 474.557 14.6958C473.488 14.6958 472.44 14.988 471.525 15.5409C469.368 16.6571 467.412 18.1259 465.739 19.8867C462.895 19.7062 460.046 20.1638 457.401 21.2258C457.401 21.2258 450.125 5.88915 438.906 9.50223C427.688 13.1153 434.46 26.8349 434.46 26.8349C434.155 27.1737 433.869 27.5279 433.601 27.8961C433.047 27.2457 432.429 26.6531 431.756 26.1274C430.468 25.4705 414.07 29.5384 405.985 32.9998C396.303 37.2803 387.378 43.0994 379.556 50.2314C373.871 56.7248 372.962 60.3379 374.73 67.9178C379.177 87.1959 393.73 105.514 409.876 117.187C408.89 124.009 408.082 130.831 407.677 137.703C406.667 154.177 409.269 162.06 417.38 168.275C398.809 224.392 409.572 372.932 409.572 372.932C410.974 374.249 412.731 375.128 414.626 375.458C414.752 376.873 415.131 380.689 415.181 381.194C412.882 382.931 410.439 384.469 407.879 385.792C406.995 386.086 406.233 386.664 405.712 387.437C405.191 388.209 404.94 389.132 404.999 390.062C404.645 392.286 414.398 392.185 417.127 391.932C419.856 391.679 419.957 389.886 420.513 389.658C421.068 389.431 420.967 390.745 420.892 391.427C420.816 392.109 423.418 392.185 425.01 392.21C426.602 392.235 426.4 376.798 426.501 375.812C428.232 375.568 429.928 375.118 431.554 374.473C449.619 325.962 451.059 295.263 451.059 295.263C444.566 243.922 445.754 209.005 447.674 209.358C449.594 209.712 446.461 222.825 450.2 270.604C453.94 318.382 469.605 378.617 469.605 378.617C471.652 378.986 473.719 379.239 475.795 379.375C475.947 380.891 476.402 384.807 476.452 385.287C474.209 386.95 471.834 388.429 469.352 389.709C468.468 389.999 467.706 390.578 467.189 391.352C466.672 392.126 466.428 393.05 466.497 393.979C466.118 396.202 475.871 396.101 478.625 395.848C481.379 395.596 481.429 393.802 481.985 393.574C482.541 393.347 482.44 394.661 482.364 395.343C482.289 396.025 484.891 396.101 486.483 396.126C488.075 396.152 486.685 387.511 488.251 379.476C489.769 379.399 491.267 379.101 492.698 378.592C492.698 378.592 499.899 360.905 504.169 283.944C508.111 213.199 501.036 177.573 499.874 172.267C501.36 171.434 502.606 170.23 503.491 168.774C504.377 167.318 504.871 165.658 504.927 163.955C504.927 162.944 503.891 122.619 503.664 119.461C515.008 111.087 525.298 101.374 534.312 90.5311C538.915 85.3516 542.116 79.0803 543.61 72.3141C545.909 58.9988 537.748 51.9242 526.757 44.3191ZM471.55 16.0209C472.623 15.4501 473.859 15.2666 475.052 15.5013C476.244 15.7361 477.318 16.3747 478.094 17.3095C479.895 19.2082 481.793 21.0129 483.779 22.7165C481.196 24.7328 479.406 27.5958 478.726 30.8017C478.726 28.3461 477.764 25.9883 476.048 24.2324C473.328 21.7624 469.878 20.2457 466.219 19.9119C467.845 18.4188 469.633 17.1136 471.55 16.0209ZM471.929 69.08C471.899 69.0383 471.859 69.0043 471.813 68.9809C471.767 68.9574 471.716 68.9452 471.664 68.9452C471.612 68.9452 471.561 68.9574 471.515 68.9809C471.469 69.0043 471.429 69.0383 471.399 69.08L469.554 70.975C469.125 68.4484 468.518 63.193 468.569 63.1677C469.832 62.4097 477.589 46.4667 478.675 34.819C484.487 44.5667 491.765 53.3613 500.253 60.8938C501.466 61.9802 507.1 66.5029 507.226 66.5787C506.746 66.7555 477.412 75.2703 476.275 75.8766C474.835 73.4764 473.319 71.3287 471.929 69.0295V69.08ZM476.149 77.241C474.481 79.5908 467.609 88.0044 466.194 90.1268C463.976 87.0026 461.951 83.7456 460.13 80.374C464.119 77.0469 467.939 73.522 471.576 69.8128C473.092 72.2383 474.507 74.7902 476.149 77.1905V77.241ZM438.477 32.166C440.726 31.7113 441.004 37.9268 450.832 39.3922C450.422 39.4094 450.02 39.5182 449.658 39.7105C449.295 39.9029 448.98 40.174 448.735 40.5039C448.735 40.5039 452.07 39.1143 452.879 41.6409C452.879 41.7925 453.283 41.6409 453.308 41.5146C453.344 41.0628 453.222 40.6125 452.965 40.2398C452.707 39.867 452.328 39.5944 451.893 39.468C453.362 39.6127 454.839 39.6633 456.315 39.6196C462.328 39.4933 459.625 46.6689 461.52 47.0226C462.429 47.1995 462.556 46.2899 463.465 45.3045C464.375 44.3191 466.194 43.1316 467.659 44.2686C471.525 47.3258 466.396 52.8338 466.396 52.8338C466.629 59.085 467.569 65.2896 469.201 71.3287C464.375 76.104 459.347 80.1972 459.347 80.4246C458.538 80.4246 454.925 81.132 453.611 81.41C452.174 78.4828 450.917 75.4705 449.847 72.3899C450.036 71.0173 450.112 69.6314 450.074 68.2462C450.074 64.5321 446.891 65.9218 444.819 65.3406C443.542 64.9537 442.379 64.2597 441.433 63.3193C439.462 61.22 438.16 58.5813 437.694 55.7395C437.038 52.4671 436.658 49.1456 436.557 45.8098C436.405 41.8178 435.698 32.7219 438.477 32.166ZM442.292 78.9086C440.17 78.0495 413.084 62.3087 411.114 60.5653C412.933 59.1251 430.619 47.629 435.824 45.0013C435.824 53.2634 436.809 64.7342 444.945 66.4523C447.042 66.8819 448.533 66.1491 448.836 67.3872C448.962 67.9178 449.013 69.6359 449.089 71.0255C449.023 70.9901 448.949 70.9716 448.874 70.9716C448.799 70.9716 448.725 70.9901 448.659 71.0255C447.623 72.213 441.408 77.3674 441.585 77.5948C441.845 78.0192 442.081 78.4578 442.292 78.9086ZM448.786 72.6931C449.215 74.0322 452.373 79.4645 453.157 81.0562C453.157 81.0562 448.381 87.2465 447.623 88.6361C446.916 86.8422 442.924 78.3022 442.57 77.7211C444.869 76.382 446.107 74.4112 448.786 72.7942V72.6931ZM425.313 381.573C422.003 384.681 416.748 382.306 415.914 381.573C415.914 380.891 415.384 376.823 415.207 375.484C418.747 375.863 422.31 375.989 425.869 375.863C425.717 376.697 425.313 380.512 425.313 381.573ZM486.761 385.363C485.367 386.374 483.682 386.906 481.96 386.879C480.238 386.852 478.571 386.267 477.21 385.211C477.21 384.605 476.604 380.613 476.427 379.223C478.069 379.223 486.281 379.451 487.746 379.223C487.569 380.613 486.887 384.63 486.735 385.363H486.761ZM542.346 74.1333C540.468 80.0123 537.368 85.4281 533.251 90.0257C524.329 100.668 514.148 110.187 502.931 118.374C502.451 118.728 504.371 164.384 503.689 166.203C502.744 168.403 501.113 170.238 499.04 171.434C491.89 176.007 451.034 179.013 427.713 172.343C423.691 171.299 419.997 169.256 416.976 166.402C413.955 163.548 411.703 159.978 410.431 156.021C408.822 150.446 408.249 144.622 408.739 138.84C409.269 126.207 411.265 112.26 412.907 100.031C412.907 100.031 412.705 99.8543 412.68 100.031C411.695 105.64 410.785 110.946 409.977 116.606C406.54 113.725 403.054 111.174 399.87 108.041C389.277 98.1019 381.383 85.6346 376.928 71.8088C373.846 61.0454 375.008 58.544 379.126 52.9096C380.156 51.4385 381.352 50.0906 382.689 48.8923C389.179 43.3363 396.365 38.648 404.064 34.9453C412.914 31.2946 422.118 28.5682 431.529 26.8096C432.098 27.3813 432.629 27.989 433.12 28.6288C431.655 30.7511 429.735 34.4147 431.251 37.4467C432.168 39.783 433.817 41.7596 435.95 43.0811V44.3191C431.2 46.7194 411.922 58.7209 409.951 60.2621C409.896 60.3141 409.852 60.3767 409.822 60.4462C409.792 60.5158 409.777 60.5907 409.777 60.6664C409.777 60.7421 409.792 60.817 409.822 60.8865C409.852 60.956 409.896 61.0187 409.951 61.0706C417.531 67.6399 440.422 79.0855 443.025 79.8182C443.682 81.0057 446.613 87.3981 447.446 89.4194C447.446 89.6215 447.851 89.7478 447.977 89.4194C448.687 87.8981 449.56 86.458 450.579 85.1241C450.706 86.3621 451.438 90.5058 454.496 91.3649C457.553 92.2239 461.697 87.7012 462.076 85.301C462.076 85.5031 464.779 89.4194 465.866 91.2133C465.905 91.2848 465.96 91.3463 466.027 91.393C466.094 91.4397 466.171 91.4704 466.251 91.4826C466.332 91.4948 466.414 91.4883 466.492 91.4635C466.57 91.4387 466.641 91.3963 466.699 91.3396C468.417 89.1414 474.936 79.6161 476.932 77.4432C477.185 77.1905 476.932 77.0136 476.528 76.2051C477.564 76.2051 510.814 66.3513 513.341 64.9616C513.619 64.81 513.341 64.3805 513.113 64.4563C511.521 64.8775 509.952 65.3835 508.414 65.9723C499.116 58.1903 492.597 54.0719 483.83 41.7925C480.621 37.2951 480.09 35.9055 478.777 33.8589C479.088 31.2074 480.064 28.6776 481.614 26.5043C483.165 24.3311 485.239 22.5849 487.645 21.4279C489.489 22.5143 504.295 30.5237 519.506 40.3018C526.227 44.6223 535.499 50.762 539.719 56.6996C541.442 59.2196 542.577 62.0944 543.04 65.1118C543.504 68.1292 543.284 71.2122 542.397 74.1333H542.346Z" fill="#7E3AF2"/>
</svg>
