<svg width="608" height="500" viewBox="0 0 608 500" fill="none" xmlns="http://www.w3.org/2000/svg">
<path d="M277.265 113.344C276.665 113.218 276.055 113.137 275.441 113.104C275.303 113.095 275.167 113.137 275.057 113.22C274.946 113.304 274.87 113.425 274.841 113.56C274.073 116.536 277.241 116.632 277.745 114.016C277.767 113.864 277.729 113.709 277.639 113.584C277.55 113.459 277.416 113.373 277.265 113.344ZM279.065 104.152C278.033 103.983 276.973 104.12 276.018 104.546C275.062 104.973 274.253 105.67 273.689 106.552C273.542 106.77 273.479 107.033 273.513 107.294C273.546 107.555 273.673 107.794 273.87 107.968C274.067 108.142 274.321 108.237 274.584 108.237C274.847 108.237 275.1 108.142 275.297 107.968C276.231 107.221 277.419 106.868 278.609 106.984C281.105 107.344 281.033 104.464 279.065 104.152ZM282.929 122.8C283.252 122.757 283.548 122.598 283.762 122.353C283.976 122.108 284.094 121.793 284.094 121.468C284.094 121.143 283.976 120.828 283.762 120.583C283.548 120.338 283.252 120.179 282.929 120.136H281.801C281.929 117.536 282.275 114.951 282.833 112.408C282.899 112.128 282.853 111.834 282.705 111.587C282.558 111.341 282.319 111.162 282.041 111.088C281.774 111.02 281.491 111.057 281.25 111.191C281.009 111.324 280.829 111.545 280.745 111.808C279.692 114.511 279.131 117.38 279.089 120.28C279.089 121.216 279.089 122.824 281.081 122.872C281.698 122.893 282.316 122.868 282.929 122.8ZM294.065 108.88C293.01 107.978 291.74 107.363 290.379 107.094C289.017 106.825 287.608 106.911 286.289 107.344C285.982 107.57 285.774 107.907 285.711 108.284C285.649 108.66 285.736 109.047 285.953 109.36C287.009 110.848 290.033 109.12 293.153 111.232C293.411 111.373 293.708 111.426 293.998 111.383C294.288 111.339 294.556 111.202 294.761 110.992C295.097 110.464 294.905 109.768 294.065 108.88ZM289.073 124.648C288.078 125.457 286.918 126.039 285.675 126.354C284.431 126.669 283.134 126.709 281.873 126.472C281.584 126.418 281.285 126.481 281.042 126.648C280.799 126.814 280.632 127.07 280.577 127.36C280.523 127.65 280.587 127.949 280.753 128.192C280.92 128.435 281.176 128.602 281.465 128.656C283.156 129.023 284.907 129.015 286.594 128.634C288.281 128.253 289.865 127.506 291.233 126.448C292.961 124.744 291.041 122.56 289.073 124.648ZM290.969 114.76C290.987 114.68 290.989 114.597 290.974 114.516C290.959 114.435 290.929 114.357 290.884 114.288C290.84 114.219 290.782 114.159 290.714 114.113C290.646 114.066 290.57 114.033 290.489 114.016C289.841 113.892 289.18 113.852 288.521 113.896C288.401 113.897 288.284 113.938 288.189 114.011C288.094 114.085 288.025 114.188 287.993 114.304C287.201 116.8 289.913 118.84 290.969 114.76Z" fill="#7E3AF2"/>
<path fill-rule="evenodd" clip-rule="evenodd" d="M285.88 146.8C282.904 146.8 282.568 148.072 282.808 151.6C283.144 156.4 283.12 156.64 287.08 156.64C291.04 156.64 291.376 156.64 291.424 151.552C291.472 146.464 290.416 146.8 285.88 146.8ZM269.08 271.984C269.08 272.124 269.135 272.258 269.234 272.357C269.333 272.456 269.468 272.512 269.608 272.512C269.748 272.512 269.882 272.456 269.981 272.357C270.08 272.258 270.136 272.124 270.136 271.984C267.322 233.477 273.068 194.824 286.96 158.8C287.32 157.864 285.88 157.168 285.544 158.128C274.421 186.295 268.478 216.24 268 246.52C268 255.016 268.384 263.512 269.08 271.984ZM141.688 257.512C137.296 258.136 132.904 258.352 128.488 258.592C126.336 253.139 123.634 247.92 120.424 243.016C118.528 240.616 117.688 247.504 114.016 260.488L99.0396 264.04C98.3436 264.208 97.4556 265.96 98.3436 266.608C101.128 268.648 106.624 271.84 109.768 273.592C108.376 277.552 105.832 284.416 104.968 288.136C104.752 288.976 106.264 290.536 107.152 289.792L122.296 278.32C127.212 281.269 132.347 283.836 137.656 286C137.867 286.096 138.102 286.132 138.333 286.105C138.564 286.077 138.783 285.986 138.966 285.843C139.149 285.699 139.289 285.508 139.371 285.291C139.454 285.073 139.474 284.837 139.432 284.608C137.934 279.724 135.982 274.991 133.6 270.472C137.032 266.968 140.248 263.272 143.56 259.624C144.472 258.4 142.768 257.368 141.688 257.512ZM131.2 270.352C133 274.48 134.944 278.512 136.336 282.784C134.416 281.944 122.2 275.296 121.456 275.8L107.92 286.408C109.36 281.896 110.776 277.384 112.216 272.896C112.672 271.384 102.4 266.656 100.696 265.696C103.096 265.192 113.968 263.296 115.456 262.288C115.912 261.976 119.512 249.448 120.256 247.168C121.456 249.064 126.88 260.464 127.864 260.512C131.924 260.728 135.996 260.584 140.032 260.08C138.832 261.304 130.864 269.44 131.272 270.4L131.2 270.352ZM122.08 209.008C123.496 209.8 123.856 207.64 123.712 206.8L120.616 193.168L131.32 186.376C132.592 185.56 133.984 183.496 132.04 183.16C127.12 182.296 122.152 181.648 117.208 180.904C115.719 175.443 113.892 170.081 111.736 164.848C111.641 164.644 111.491 164.471 111.302 164.35C111.112 164.229 110.892 164.164 110.668 164.164C110.443 164.164 110.223 164.229 110.034 164.35C109.844 164.471 109.694 164.644 109.6 164.848C108.16 168.304 105.76 176.056 104.632 179.896C100.648 180.112 91.0716 180.424 87.8316 180.976C87.1116 181.216 86.2716 182.656 86.9676 183.376L97.2396 192.688C96.1836 197.344 95.1996 202.072 94.2876 206.776C94.1196 207.664 95.1996 208.648 96.0636 208.12C100.648 205.384 105.16 202.504 109.672 199.672C113.656 202.888 117.856 205.936 122.08 209.008ZM99.1116 191.728C96.1195 188.647 92.9113 185.784 89.5116 183.16L105.088 182.464C106.648 182.464 110.224 170.128 110.896 168.232C112.072 171.88 114.112 178.144 114.856 180.544C115.6 182.944 114.64 182.56 117.376 182.944L129.376 184.912L119.056 191.896C118.072 192.568 120.88 203.896 121.216 205.648L110.128 197.56C108.904 196.672 98.1276 204.256 96.4956 205.336C97.2876 202.216 99.9996 194.608 99.1116 191.728ZM202.456 338.8C200.416 338.992 190.096 339.64 188.32 340.096L182.368 330.208C181.936 329.392 180.448 325.144 178.792 325.72C178.408 325.72 178.168 326.032 177.952 327.016C177.544 328.696 177.184 332.656 176.128 342.592C171.328 343.768 166.648 344.992 161.968 346.48C161.272 346.696 160.552 348.328 161.344 348.88C165.426 351.547 169.711 353.89 174.16 355.888C173.344 359.368 172.984 362.944 172.432 366.448C172.024 369.184 170.92 373.408 175.576 369.808C179.028 367.142 182.24 364.179 185.176 360.952C188.584 362.56 196.144 366.136 199.384 367.168C199.696 367.288 201.784 367.408 201.424 366.04C199.443 361.31 197.032 356.771 194.224 352.48C197.23 349.177 200.058 345.716 202.696 342.112C203.848 340.84 204.448 338.632 202.456 338.8ZM192.376 352.888L198.184 364.12C196.624 363.472 185.08 358.12 184.576 358.48C181.24 361.768 178.168 364.72 174.592 367.792C174.928 365.56 176.992 354.808 176.08 354.208C171.976 352.216 168.016 350.224 164.08 348.04C165.904 347.608 177.688 345.232 178.096 343.96C178.888 341.44 179.56 333.76 179.992 330.664C181.989 334.539 184.404 338.184 187.192 341.536C188.248 342.832 198.784 341.536 200.752 341.272C199.36 342.808 191.512 351.304 192.376 352.888ZM462.856 130.384C466.896 132.469 471.143 134.126 475.528 135.328L476.872 149.968C476.992 150.976 478.744 151.168 479.128 150.52L487.576 137.2C492.808 138.184 497.968 139.456 503.152 140.728C504.856 141.136 506.248 139.768 504.328 137.344C501.208 133.708 498.345 129.858 495.76 125.824C496.312 124.84 502.336 114.496 502.504 113.272C502.49 112.88 502.346 112.504 502.094 112.203C501.841 111.903 501.495 111.696 501.112 111.616C500.8 111.616 489.112 116.272 487.936 116.728C486.568 115.576 477.232 106.888 476.824 106.024C475.984 104.392 474.592 104.248 474.424 105.76L474.136 121.504L462.88 127.312C462.112 127.72 462.088 130 462.856 130.384ZM476.224 122.464C476.704 119.632 476.656 112.696 476.728 109.216C479.781 112.732 483.164 115.946 486.832 118.816C487.984 119.704 497.128 115.696 499.288 114.784L493.864 124.936C493.864 128.608 499.312 135.304 501.808 137.968C499.912 137.464 487.096 133.888 486.256 135.16C483.856 139.144 481.072 143.44 478.648 147.424L478.024 137.824C477.664 132.472 477.232 133.552 473.368 132.184L464.32 128.824C466.48 128.08 475.936 124.144 476.224 122.464ZM420.664 354.376C420.664 353.152 413.776 343.744 412.6 342.376C413.008 341.704 419.008 330.088 419.368 328.816C419.968 326.416 418.456 326.032 417.304 326.416C412.816 328.144 408.856 329.128 404.392 330.544C400.76 325.744 397.144 320.944 393.544 316.144C392.128 314.464 391.144 318.208 391.144 319.24C390.832 323.68 390.064 330.52 390.184 334.48L376.504 340.888C375.208 341.536 376.504 343.024 376.936 343.288L389.632 347.944C389.632 352.744 388.744 359.944 389.176 364.192C389.176 364.984 390.856 365.512 391.36 364.912C395.152 360.52 398.8 356.008 402.448 351.472C408.062 353.536 413.812 355.212 419.656 356.488C421.072 356.824 421.816 354.928 420.664 354.376ZM401.32 349.168C397.96 353.296 394.624 357.472 391.384 361.72C391.504 359.488 392.464 347.8 391.936 346.36C391.648 345.592 381.016 342.52 379.48 342.016C380.704 341.512 391.144 337.096 392.032 336.304C392.92 335.512 393.424 321.784 393.568 319.696L402.952 332.776C404.032 333.832 414.472 330.088 416.536 329.272C414.6 333.48 412.648 337.664 410.68 341.824C410.152 343.432 416.416 351.832 417.568 353.536C415.648 353.032 401.776 348.592 401.32 349.168ZM520.456 217.072L511.552 206.128C512.992 202.912 516.352 193.168 516.808 191.464C516.835 191.159 516.753 190.855 516.578 190.605C516.402 190.354 516.143 190.174 515.848 190.096C514.864 189.76 504.256 194.536 502.672 195.16C499.182 191.356 495.921 187.349 492.904 183.16C492.088 181.936 490.888 183.4 490.672 183.928C490.456 184.456 489.856 198.76 489.736 200.728L473.896 206.8C472.816 207.256 473.344 209.416 474.04 209.608L489.424 213.688V229.672C489.424 230.752 490.192 234.472 491.704 232.744C495.52 227.656 499.672 222.256 503.464 217.144C513.76 218.32 517.36 219.856 520.264 219.16C520.502 219.124 520.722 219.009 520.887 218.833C521.053 218.657 521.155 218.431 521.177 218.191C521.199 217.951 521.14 217.71 521.009 217.507C520.878 217.304 520.684 217.151 520.456 217.072ZM502.288 215.008C498.928 219.64 495.256 224.608 491.896 229.192C491.896 225.808 491.728 215.344 491.32 213.376C493.144 210.976 478.024 208.576 476.272 208.12C478.12 207.448 491.32 203.32 491.536 202.072C492.328 196.996 492.785 191.872 492.904 186.736C494.032 188.416 500.296 197.656 502.192 197.032C503.248 197.848 511.792 194.104 513.808 193.12C513.28 194.824 509.008 205.96 509.704 207.04C512.104 210.232 514.84 213.664 517.264 216.856C514.864 216.856 502.864 214.456 502.24 215.008H502.288ZM492.544 291.784C493.408 290.248 498.376 281.656 498.616 280.552C498.569 280.284 498.47 280.029 498.324 279.8C498.178 279.571 497.987 279.374 497.764 279.219C497.54 279.065 497.288 278.957 497.022 278.902C496.756 278.846 496.482 278.844 496.216 278.896C491.8 280.336 487.48 281.68 483.04 283.024C478.768 278.944 474.376 274.864 469.96 270.88C469.814 270.753 469.641 270.661 469.454 270.611C469.267 270.562 469.072 270.555 468.882 270.592C468.692 270.629 468.513 270.709 468.359 270.825C468.205 270.942 468.079 271.092 467.992 271.264C467.416 272.68 468.832 286.792 469.168 289.144L454.336 296.632C453.952 296.848 452.728 298.696 454.024 299.032L471.616 301.768C471.767 308.042 472.571 314.284 474.016 320.392C474.568 321.448 476.56 320.848 476.92 320.224L485.992 303.592C490.168 304.456 495.592 305.512 499.768 306.376C502.312 306.976 504.16 305.728 502.432 303.976C499.096 299.968 495.688 295.96 492.544 291.784ZM485.344 301.648C483.952 302.08 477.232 315.904 476.2 317.92C475.816 315.688 474.04 300.016 472.984 299.608C471.928 299.2 458.752 297.664 457.36 297.544C459.112 296.728 471.424 291.568 471.448 290.056C471.448 284.704 470.8 279.472 470.632 274.144C474.408 277.904 478.208 281.616 482.032 285.28C483.088 286.36 493.696 282.448 495.472 281.776C493.864 284.872 490.672 289.264 490.672 292.672C493.33 296.571 496.231 300.299 499.36 303.832C496.984 303.304 486.544 301.048 485.248 301.648H485.344ZM339.832 461.2C339.592 459.376 339.832 449.776 339.52 448.288C341.779 448.349 344.037 448.123 346.24 447.616C347.176 446.848 351.736 314.104 350.608 291.328C341.176 296.776 314.968 310.744 302.608 308.608C294.808 307.264 280.552 297.256 275.32 292.024C271.288 287.968 271.264 281.944 271.672 276.616L259.672 276.256C259.104 281.803 257.009 287.084 253.619 291.512C250.23 295.94 245.678 299.34 240.472 301.336C232.624 348.256 225.784 398.512 224.176 447.736C224.176 448.288 227.296 448.48 229.744 448.552C229.552 450.112 228.304 459.712 228.544 460.552C223.528 462.76 207.4 469.864 206.944 476.08C206.584 479.896 248.944 477.352 249.16 476.08C249.544 474.184 249.16 464.44 247.888 462.88C248.848 458.08 249.784 453.28 250.72 448.48C255.16 448.288 258.616 448.48 258.784 447.664C266.272 417.592 279.784 389.656 288.136 359.752C286.336 348.568 284.368 335.56 282.952 324.352C279.831 322.955 276.98 321.022 274.528 318.64C272.32 316.504 275.44 315.592 277.264 316.648C282.28 319.576 286.288 320.8 286.432 321.808C291.232 351.832 307 421.864 313.864 447.52C314.032 448.12 316.744 448.072 319.528 448.264C320.128 452.656 320.776 457.288 321.592 461.656C320.44 461.896 319.192 474.064 320.32 474.904C322.72 476.608 358.72 478.936 359.488 476.848C360.256 474.76 351.352 466.552 339.832 461.2ZM246.688 462.352C241.024 461.728 235.096 462.664 229.648 460.672C230.434 456.665 231.01 452.619 231.376 448.552H249.064C247.819 453.062 247.023 457.685 246.688 462.352ZM322.792 461.632C322.36 457.168 321.76 452.752 321.112 448.312C326.891 448.648 332.684 448.648 338.464 448.312C338.008 452.58 338.008 456.884 338.464 461.152C333.262 461.743 328.02 461.903 322.792 461.632Z" fill="#7E3AF2"/>
<path fill-rule="evenodd" clip-rule="evenodd" d="M424.002 30.7121C423.69 28.0001 421.866 28.9841 421.122 29.9921C398.946 59.1041 376.65 88.0961 354.762 117.4C330.69 87.0401 297.81 49.2401 269.442 22.2401C268.818 21.6641 267.402 22.2401 267.162 22.9361C255.522 58.1681 244.506 97.7921 235.362 134.032C205.722 118.072 165.762 100.432 134.082 87.1841C133.362 86.8961 130.602 86.5121 131.01 88.2641C149.946 173.584 177.57 264.112 187.29 291.16C187.962 293.08 188.514 293.296 190.482 293.032C204.642 291.4 219.282 288.52 233.442 286.168L234.018 293.944C234.474 300.184 239.37 297.16 242.826 294.808C248.342 291.58 252.432 286.384 254.274 280.264C256.434 272.776 256.17 237.568 256.674 227.632C258.402 228.472 262.266 225.064 261.186 221.152C261.967 220.435 262.477 219.471 262.63 218.421C262.783 217.372 262.57 216.302 262.026 215.392C265.986 212.08 262.194 207.256 258.522 205.504C260.442 188.08 265.266 161.152 270.738 149.608L272.106 149.056C271.978 151.877 272.09 154.703 272.442 157.504C272.464 157.773 272.554 158.032 272.705 158.256C272.855 158.48 273.06 158.662 273.301 158.785C273.541 158.907 273.809 158.967 274.078 158.957C274.348 158.947 274.611 158.868 274.842 158.728C276.985 157.28 279.037 155.701 280.986 154C280.75 152.065 280.694 150.113 280.818 148.168C278.678 146.208 276.25 144.589 273.618 143.368C271.986 142.696 272.202 146.296 272.154 147.064C242.202 158.8 210.714 187.432 201.834 219.208C197.658 234.16 199.146 269.008 223.434 264.976C232.818 263.392 242.418 252.112 247.986 243.208C251.898 236.92 253.578 241.792 250.866 246.136C246.136 253.377 240.398 259.907 233.826 265.528C233.33 271.515 233.193 277.525 233.418 283.528C219.018 285.928 204.21 288.784 189.642 291.016C183.234 269.416 160.074 202.936 133.986 89.4161C164.562 102.544 204.018 121.168 233.418 135.976C236.634 137.608 236.634 137.992 237.474 134.752C247.074 98.9921 257.61 59.5121 269.178 25.0001C298.77 55.8161 326.538 86.1041 353.178 119.728C353.634 120.304 354.93 120.952 355.578 120.16C378.042 91.2161 400.098 61.9601 422.298 32.8001C429.354 102.592 433.986 175 433.17 247C417.33 250.2 401.482 253.296 385.626 256.288C398.298 234.832 385.506 205.552 372.258 187.36C356.213 165.281 332.776 149.696 306.21 143.44C306.21 135.64 305.706 128.248 309.786 121.192C311.01 119.056 312.93 117.136 312.522 114.52C317.874 110.152 320.658 102.112 321.954 95.5601C324.162 84.4481 314.754 86.8481 308.514 88.5281C300.522 90.6641 287.13 87.5681 279.474 85.4081C274.866 84.1121 263.298 81.1361 261.642 88.0961C260.274 93.7361 268.362 98.9441 272.85 100.48C268.986 113.56 265.65 139.264 279.09 142.096C279.09 142.912 278.922 143.728 278.85 144.496C279.426 144.736 279.978 145 280.482 145.264C280.482 144.328 280.818 140.776 279.618 140.464C270.786 137.584 270.738 126.064 271.266 118.552C271.725 112.593 272.607 106.674 273.906 100.84C279.713 102.306 285.838 101.869 291.378 99.5921C294.738 98.3201 302.634 93.2801 306.138 96.1361C309.138 98.5361 301.746 101.416 302.73 111.4C303.378 118.072 307.002 112.408 309.738 113.248C310.1 113.38 310.41 113.622 310.626 113.941C310.842 114.26 310.951 114.639 310.938 115.024C311.154 118.816 303.234 121.504 304.41 142.648C302.274 142.072 295.098 147.256 293.37 148.504C293.626 150.573 293.57 152.668 293.202 154.72C296.658 156.856 302.658 159.376 303.282 158.992C304.362 158.344 306.258 149.08 305.922 145.288C308.538 145.888 311.13 146.608 313.674 147.424C305.514 157.024 288.45 191.272 286.146 205.024C284.444 204.858 282.729 205.16 281.186 205.895C279.642 206.631 278.328 207.774 277.386 209.2C274.674 213.592 272.826 222.496 276.402 226.648C277.578 227.826 279.056 228.656 280.674 229.048C277.712 245.543 276.003 262.239 275.562 278.992C275.562 283.096 275.73 286.192 279.426 289.576C284.61 294.376 296.226 302.944 303.042 303.976C313.314 305.728 342.138 292.216 352.218 284.776C353.217 283.812 353.824 282.513 353.922 281.128C354.244 278.838 354.301 276.519 354.09 274.216C331.465 271.166 310.395 261.005 293.922 245.2C291.522 242.8 293.562 240.04 296.178 242.416C317.034 261.328 360.69 284.104 383.466 259.216C400.522 256.016 417.57 252.688 434.61 249.232C435.762 249.016 435.57 247.672 435.57 246.664C436.007 174.514 432.144 102.402 424.002 30.7121ZM247.314 181.696C247.578 180.52 251.13 177.52 252.69 176.272C251.25 175.336 248.298 173.2 248.562 171.808C249.066 169.192 256.146 159.472 257.898 157.216C259.074 155.728 261.522 157.624 260.298 159.136C257.35 163.019 254.778 167.174 252.618 171.544C256.05 174.76 257.274 174.544 257.418 175.888C257.418 178 252.858 180.688 250.914 182.464C251.154 187.536 251.402 192.616 251.658 197.704C251.658 199.72 248.73 199.744 248.562 197.704C248.394 195.664 246.954 183.256 247.314 181.696ZM255.33 204.616C253.436 204.336 251.504 204.467 249.666 205C251.586 202.682 252.934 199.944 253.602 197.008C254.274 194.608 255.666 194.992 256.002 196.816C256.308 199.435 256.079 202.088 255.33 204.616ZM257.874 207.016C260.922 208.504 263.13 210.976 261.162 214.336C260.202 213.208 257.106 210.232 255.57 211.048C255.488 211.093 255.417 211.156 255.362 211.232C255.308 211.308 255.271 211.396 255.255 211.488C255.239 211.58 255.244 211.675 255.269 211.765C255.294 211.855 255.34 211.938 255.402 212.008C255.786 212.44 263.25 215.512 260.466 219.76C259.77 218.56 257.322 216.376 255.882 216.688C255.803 216.699 255.728 216.727 255.66 216.769C255.593 216.811 255.535 216.866 255.49 216.931C255.444 216.997 255.413 217.071 255.398 217.148C255.383 217.226 255.384 217.307 255.402 217.384C255.69 218.8 259.314 218.632 259.722 222.184C259.815 223.105 259.582 224.029 259.065 224.796C258.548 225.563 257.778 226.125 256.89 226.384C258.138 223.984 254.754 222.112 252.834 223.984C252.57 224.224 252.57 224.944 253.698 224.608C254.043 224.512 254.408 224.512 254.754 224.608C252.354 231.304 244.266 227.368 242.754 221.104C241.844 217.083 242.532 212.867 244.674 209.344C249.378 206.632 252.33 204.4 257.874 207.112V207.016ZM212.97 216.616C212.68 216.744 212.354 216.765 212.049 216.676C211.745 216.587 211.482 216.393 211.307 216.129C211.132 215.865 211.056 215.547 211.092 215.232C211.128 214.917 211.275 214.625 211.506 214.408C218.16 209.571 225.73 206.141 233.754 204.328C235.389 197.775 237.523 191.356 240.138 185.128C240.738 183.664 243.162 184.648 242.538 186.088C240.374 191.862 238.586 197.771 237.186 203.776C238.258 203.664 239.314 203.592 240.354 203.56C241.674 203.56 242.178 205.624 240.762 205.96C230.823 207.512 221.34 211.205 212.97 216.784V216.616ZM249.306 237.208C237.114 235.216 229.554 221.176 239.97 209.32L243.426 209.2C240.066 213.328 239.706 223.312 245.082 227.752C246.004 228.529 247.087 229.094 248.253 229.405C249.418 229.716 250.638 229.766 251.826 229.552C251.312 232.254 250.466 234.882 249.306 237.376V237.208ZM296.346 200.944C298.458 198.04 306.618 186.544 308.73 184.144C307.65 183.064 305.034 180.232 305.394 178.504C305.446 178.233 305.572 177.982 305.758 177.778C305.945 177.575 306.184 177.427 306.45 177.352L314.154 174.376L318.954 155.752C318.984 155.551 319.057 155.359 319.166 155.187C319.275 155.016 319.418 154.869 319.587 154.756C319.756 154.643 319.947 154.566 320.147 154.531C320.348 154.496 320.553 154.503 320.75 154.551C320.948 154.6 321.133 154.689 321.294 154.813C321.455 154.937 321.589 155.093 321.686 155.272C321.783 155.45 321.842 155.647 321.86 155.849C321.877 156.052 321.852 156.256 321.786 156.448C321.042 159.616 318.498 175.36 316.434 176.944C314.324 178.183 312.044 179.105 309.666 179.68C311.49 181.312 313.53 182.992 312.21 185.224C311.586 186.352 300.546 200.704 298.794 202.912C297.666 204.4 295.242 202.624 296.346 201.112V200.944ZM289.002 199.6C293.634 191.392 293.394 198.616 292.986 202.648C292.878 203.886 293.05 205.133 293.49 206.296C291.544 205.481 289.475 205.003 287.37 204.88C287.538 203.025 288.094 201.226 289.002 199.6ZM277.602 225.424C274.41 222.568 276.642 213.256 278.97 209.8C281.898 205.528 288.186 205.528 292.482 207.4C289.227 209.749 286.737 213.005 285.324 216.762C283.911 220.519 283.637 224.609 284.538 228.52C282.051 227.936 279.697 226.886 277.602 225.424ZM293.226 237.088L286.026 229.888C283.626 219.016 288.762 210.256 295.482 207.616C297.738 207.784 300.282 207.616 302.538 207.616C296.346 215.176 291.138 227.032 293.106 237.088H293.226ZM364.002 219.4C346.985 210.77 328.169 206.288 309.09 206.32C307.41 206.32 307.554 203.92 309.09 203.752C316.182 203.427 323.29 203.813 330.306 204.904C330.066 204.016 328.986 199.96 328.674 198.832C328.54 198.514 328.538 198.155 328.669 197.836C328.799 197.516 329.051 197.262 329.37 197.128C329.688 196.994 330.046 196.993 330.366 197.123C330.685 197.254 330.94 197.506 331.074 197.824C332.232 200.311 333.164 202.898 333.858 205.552C344.888 207.667 355.453 211.731 365.058 217.552C366.57 218.224 365.322 220.048 364.002 219.4Z" fill="#7E3AF2"/>
</svg>
