<svg width="608" height="536" viewBox="0 0 608 536" fill="none" xmlns="http://www.w3.org/2000/svg">
<path d="M341.673 123.061C341.395 114.319 339.147 123.894 340.41 126.471C340.454 126.549 340.514 126.618 340.585 126.673C340.656 126.728 340.738 126.769 340.825 126.792C340.912 126.816 341.002 126.822 341.091 126.81C341.181 126.798 341.267 126.769 341.345 126.724C341.447 126.659 341.533 126.573 341.597 126.471C341.812 125.344 341.812 124.187 341.597 123.061H341.673ZM317.774 158.632C316.081 158.632 297.841 157.697 297.942 159.087C296.805 158.758 297.942 166.918 297.942 167.878C297.942 168.838 299.887 168.687 300.468 168.737C305.521 169.116 319.517 169.015 320.679 169.015C321.841 169.015 321.159 159.415 321.134 159.39C321.108 158.329 318.38 158.657 317.774 158.632ZM319.972 167.802C315.652 167.802 303.323 167.499 299.23 167.802C298.927 165.023 298.624 162.244 298.346 159.465L320.047 159.895C319.871 162.522 319.972 165.175 319.972 167.802ZM286.043 171.188C286.139 171.177 286.23 171.134 286.298 171.065C286.367 170.996 286.411 170.906 286.421 170.809V164.367C286.421 163.407 284.88 163.23 284.931 164.215C284.931 166.438 285.209 168.636 285.386 170.834C285.388 170.91 285.409 170.984 285.449 171.048C285.489 171.113 285.545 171.166 285.611 171.202C285.678 171.238 285.753 171.255 285.829 171.253C285.905 171.25 285.978 171.228 286.043 171.188ZM340.713 155.853C340.615 155.866 340.523 155.91 340.451 155.978C340.378 156.046 340.329 156.135 340.309 156.232C340.309 157.293 339.627 163.356 340.89 163.482C342.456 163.482 341.395 157.596 341.244 156.181C341.214 156.069 341.142 155.973 341.044 155.912C340.945 155.851 340.827 155.83 340.713 155.853ZM341.395 169.899C341.143 168.156 340.258 168.282 340.157 170.657V173.487C340.157 175.306 342.33 176.746 341.395 169.899ZM340.839 181.243C339.475 181.369 340.536 187.66 340.713 188.822C340.713 189.251 341.496 189.352 341.521 188.822C341.521 186.548 341.521 184.274 341.673 182.001C341.678 181.893 341.659 181.786 341.618 181.687C341.576 181.587 341.514 181.498 341.434 181.426C341.354 181.354 341.26 181.3 341.157 181.268C341.054 181.236 340.946 181.228 340.839 181.243ZM341.521 132.13C341.521 131.6 340.587 131.675 340.486 132.13C340.385 132.585 339.627 140.72 341.395 138.699C341.775 136.517 341.775 134.286 341.395 132.105L341.521 132.13ZM340.132 145.672V150.724C340.132 151.735 341.724 151.583 341.673 150.724C341.673 149.057 341.673 147.389 341.42 145.672C341.269 142.994 340.183 142.842 340.132 145.672ZM340.486 195.037C340.106 197.227 340.106 199.466 340.486 201.656C340.486 202.212 341.42 202.11 341.521 201.656C341.623 201.201 342.254 193.016 340.486 195.037ZM408.142 125.233C409.576 125.467 410.896 126.159 411.906 127.204C412.462 127.785 413.169 126.774 411.098 125.107C407.662 122.404 406.222 124.88 408.142 125.233ZM406.297 135.01C408.546 134.379 406.676 129.705 405.994 133.318C405.918 133.621 405.691 135.187 406.297 135.01ZM408.015 150.901C415.594 151.053 413.346 139.28 411.906 141.806C408.571 147.491 402.912 146.278 402.508 146.859C402.104 147.44 404.453 150.851 408.015 150.901ZM412.285 143.12C413.978 150.093 406.474 152.24 403.493 147.491C405.209 147.569 406.917 147.209 408.456 146.445C409.994 145.68 411.312 144.536 412.285 143.12ZM341.218 114.623C341.318 114.576 341.404 114.507 341.471 114.42C341.888 112.217 341.888 109.954 341.471 107.751C341.471 107.347 340.738 107.22 340.612 107.751C340.217 109.952 340.157 112.201 340.435 114.42C340.518 114.545 340.644 114.634 340.788 114.671C340.933 114.708 341.086 114.691 341.218 114.623ZM396.748 140.947C397.253 143.221 403.215 140.745 397.986 140.492C398.314 137.227 399.001 134.008 400.032 130.892C400.436 129.528 398.238 130.134 396.95 139.204C396.781 139.769 396.713 140.359 396.748 140.947ZM285.007 177.478C285.06 179.712 285.254 181.939 285.588 184.148C285.588 184.255 285.63 184.358 285.706 184.434C285.782 184.51 285.885 184.552 285.992 184.552C286.099 184.552 286.202 184.51 286.278 184.434C286.354 184.358 286.396 184.255 286.396 184.148C287.255 172.906 285.007 177.327 285.007 177.478ZM393.236 130.235C392.327 131.448 392.503 133.646 393.514 132.762C394.525 131.878 393.868 129.376 393.236 130.235ZM285.158 203.854C283.92 206.582 286.699 216.485 286.573 205.597C286.548 203.854 285.739 202.616 285.158 203.854ZM285.209 197.058C285.209 197.588 286.169 197.513 286.27 197.058C286.371 196.603 287.104 188.468 285.36 190.464C284.931 192.645 284.879 194.884 285.209 197.083V197.058Z" fill="#7E3AF2"/>
<path d="M384.046 112.122C385.694 113.616 387.559 114.851 389.578 115.785C386.395 126.32 379.625 160.148 397.537 162.169C397.537 163.786 397.385 165.403 397.309 167.045C391.776 168.757 386.461 171.105 381.469 174.043C379.422 177.377 377.376 180.738 375.456 184.148C372.926 188.854 370.658 193.695 368.66 198.649C372.212 199.948 375.524 201.826 378.462 204.207C381.494 206.481 376.088 209.942 373.915 212.696C380.065 223.979 388.106 234.122 397.688 242.684C398.269 239.198 398.951 236.216 399.229 235.105C393.419 224.999 385.839 187.104 386.724 172.956C388.24 172.198 389.755 171.516 391.271 170.885C391.271 173.765 394.025 180.712 396.955 181.42C397.284 182.43 398.598 180.409 399.482 179.525C399.962 181.268 400.619 183.062 400.922 184.376C403.021 183.926 405.206 184.093 407.212 184.856C408.274 183.39 410.067 181.293 410.952 180.308C411.381 180.889 412.088 182.127 412.846 182.001C418.884 180.864 428.004 175.104 431.112 169.495C432.981 169.975 434.8 170.506 436.619 171.112C420.122 189.201 403.777 220.098 399.532 243.72C410.446 235.838 428.409 222.7 436.923 214.591C430.329 204.309 424.821 205.066 438.059 202.464C440.586 201.984 442.986 201.504 445.462 201.151C444.805 191.281 443.693 181.462 442.127 171.693C436.485 169.269 430.533 167.645 424.442 166.868C424.291 162.952 424.442 159.011 424.442 155.095C424.442 155.095 442.455 133.596 440.333 119.372C439.499 113.688 435.053 113.258 430.43 114.749C433.992 111.338 438.261 111.869 438.009 109.696C437.63 106.488 429.52 108.408 426.893 113.107C419.44 97.7212 401.629 93.3506 411.432 104.921C404.989 100.677 397.789 96.9633 389.856 96.9633C378.008 96.7865 376.593 105.351 384.046 112.122ZM397.334 180.333C395.821 179.124 394.564 177.625 393.636 175.925C392.708 174.225 392.127 172.357 391.928 170.43C393.772 169.672 395.616 168.99 397.511 168.358C399.689 170.326 401.965 172.181 404.332 173.916C401.567 175.561 399.181 177.774 397.334 180.409V180.333ZM424.493 167.904C426.312 168.283 428.106 168.662 429.899 169.116C425.475 174.525 419.657 178.622 413.074 180.965C411.185 178.452 409.015 176.163 406.606 174.144C412.962 173.485 419.081 171.376 424.493 167.979V167.904ZM390.437 116.164C396.096 118.538 413.528 121.065 419.819 120.812C416.131 130.16 420.4 139.28 423.028 134.96C423.76 133.722 425.023 131.777 427.07 133.393C428.257 134.354 428.712 136.678 426.64 140.366C424.451 143.999 423.33 148.176 423.406 152.417C423.074 157.336 423.006 162.27 423.204 167.196C417.79 170.234 411.879 172.287 405.747 173.26L398.168 167.651C398.421 164.443 399.305 160.83 398.168 160.83C396.726 160.744 395.319 160.35 394.042 159.675C392.765 158.999 391.648 158.058 390.766 156.914C383.717 148.451 387.886 126.168 390.437 116.164Z" fill="#7E3AF2"/>
<path d="M391.969 126.673C392.578 126.197 393.277 125.851 394.025 125.655C394.772 125.46 395.551 125.419 396.315 125.537C396.424 125.523 396.526 125.475 396.605 125.399C396.684 125.322 396.736 125.222 396.753 125.114C396.77 125.005 396.751 124.894 396.7 124.797C396.648 124.7 396.566 124.623 396.466 124.577C391.919 123.515 390.479 127.911 391.969 126.673ZM401.039 185.689C399.018 195.66 397.005 205.648 395.001 215.652C396.161 221.183 397.854 226.59 400.054 231.795C402.045 225.785 404.347 219.882 406.951 214.111C406.344 207.088 405.991 189.934 406.269 186.725C404.708 185.758 402.85 185.39 401.039 185.689ZM218.181 123.035C220.303 122.758 216.589 110.404 217.246 121.166C217.322 121.823 217.246 123.162 218.181 123.035ZM217.271 227.551C217.271 228.309 217.069 230.886 218.282 230.734C220.404 230.456 216.867 219.063 217.271 227.551ZM218.56 151.305C218.536 151.206 218.479 151.118 218.399 151.055C218.319 150.991 218.22 150.957 218.118 150.957C218.016 150.957 217.917 150.991 217.836 151.055C217.756 151.118 217.7 151.206 217.676 151.305C217.276 153.498 217.224 155.741 217.524 157.95C217.595 158.093 217.719 158.203 217.871 158.255C218.022 158.307 218.188 158.298 218.332 158.228C218.427 158.175 218.513 158.106 218.585 158.026C218.988 155.803 218.979 153.525 218.56 151.305ZM217.347 242.255C217.499 243.29 218.939 243.215 218.888 241.345C218.661 235.433 217.322 235.332 217.297 238.263C217.196 239.592 217.196 240.926 217.297 242.255H217.347ZM217.271 166.691C217.166 167.792 217.251 168.903 217.524 169.975C217.623 170.13 217.777 170.242 217.955 170.289C218.133 170.336 218.322 170.314 218.484 170.228L218.737 169.975C218.737 169.723 218.737 161.765 217.6 163.407C217.019 164.19 217.271 165.756 217.271 166.691ZM218.383 199.812C218.374 199.752 218.353 199.694 218.321 199.642C218.289 199.59 218.247 199.545 218.198 199.51C218.148 199.475 218.092 199.45 218.033 199.436C217.974 199.423 217.912 199.422 217.852 199.433C217.756 199.444 217.665 199.487 217.597 199.556C217.528 199.625 217.484 199.715 217.474 199.812C217.474 200.873 216.766 206.936 218.029 207.062C219.596 207.264 218.535 201.252 218.383 199.812ZM218.307 187.584C218.307 187.477 218.265 187.374 218.189 187.298C218.113 187.222 218.01 187.18 217.903 187.18C217.796 187.18 217.693 187.222 217.617 187.298C217.541 187.374 217.499 187.477 217.499 187.584C216.64 198.852 218.888 194.405 218.888 194.254C218.836 192.02 218.642 189.793 218.307 187.584ZM218.636 175.735C218.636 175.18 217.701 175.281 217.6 175.735C217.499 176.19 216.766 184.325 218.509 182.304C218.931 180.121 218.974 177.882 218.636 175.685V175.735ZM217.322 214.237V216.991C217.322 218.81 219.495 220.25 218.56 213.403C218.307 211.736 217.423 211.938 217.322 214.237ZM361.956 315.999C358.1 315.16 354.341 313.924 350.739 312.311C350.916 316.302 351.118 320.168 351.32 324.008C357.99 323.831 361.224 322.921 361.956 316.05V315.999ZM456.215 331.258L456.872 319.662C450.935 320.214 444.972 320.45 439.01 320.37C441.461 330.071 446.514 331.006 456.215 331.258ZM467.179 489.055C465.386 453.534 464.451 357.457 465.562 318.627C463.289 318.98 460.813 319.283 458.236 319.536C456.493 377.642 455.71 430.949 459.373 489.737C461.994 489.865 464.62 489.635 467.179 489.055ZM285.837 250.844L173.313 249.076C168.765 249.076 164.142 248.798 159.569 249.076C159.039 249.076 159.114 249.909 159.569 249.96C165.153 250.49 177.936 250.516 184.227 250.642L285.711 252.36C286.696 252.36 286.847 250.844 285.837 250.844Z" fill="#7E3AF2"/>
<path d="M438.605 489.434C444.914 489.973 451.253 490.092 457.578 489.788C455.051 437.643 454.091 385.474 456.138 333.153C450.63 333.153 441.535 331.789 438.832 326.155C437.881 324.354 437.435 322.328 437.544 320.294C421.249 319.864 405.939 316.782 401.846 309.153C400.94 310.926 399.488 312.362 397.703 313.245C397.703 316.226 397.248 330.425 398.461 332.673C399.396 334.467 401.467 334.214 403.16 334.517C403.327 334.564 403.469 334.676 403.554 334.828C403.639 334.979 403.661 335.158 403.615 335.326C403.582 335.433 403.523 335.531 403.444 335.61C403.365 335.689 403.267 335.748 403.16 335.781C398.461 336.538 396.364 333.785 396.111 329.414C395.694 324.286 395.694 319.132 396.111 314.003C388.886 317.414 376.052 318.778 363.269 316.277C363.269 324.058 357.988 326.029 351.268 326.206C355.563 403.335 365.871 450.831 378.881 489.661C379.311 490.899 406.015 490.621 405.964 489.434C403.993 445.93 402.932 407.757 407.707 369.684L405.181 349.473C398.36 346.543 399.623 344.421 400.76 345.153L404.903 347.68C405.838 348.109 406.621 348.059 406.57 349.246C413.417 396.11 424.407 440.852 438.605 489.434ZM194.482 231.846C187.236 231.567 179.98 231.736 172.755 232.351C171.139 232.528 170.734 232.705 170.734 234.322C170.734 236.595 170.734 241.32 171.77 240.713C171.922 241.32 188.899 241.193 193.598 240.941C194.886 240.941 195.139 240.107 194.406 239.804C194.987 239.728 195.19 232.149 194.482 231.846ZM171.947 240.183C172.073 237.919 172.073 235.651 171.947 233.387C178.945 233.21 186.726 233.387 193.522 232.907C193.522 233.842 193.143 239.223 193.8 239.728C191.097 239.551 172.377 239.981 171.947 240.183Z" fill="#7E3AF2"/>
<path d="M443.765 172.451C445.532 180.897 446.698 189.457 447.251 198.068C447.681 204.207 448.59 202.641 438.434 204.46C436.464 204.814 434.518 205.268 432.548 205.521C433.634 206.835 441.087 215.627 438.055 215.93C433.962 221.387 406.299 241.522 399.099 245.539C398.72 248.065 398.442 250.415 398.29 252.89C397.942 252.905 397.601 252.99 397.288 253.143C396.975 253.295 396.697 253.51 396.471 253.775C396.497 250.812 396.75 247.856 397.229 244.932C385.355 236.52 374.062 217.547 372.243 212.797C371.384 210.574 375.907 207.517 377.296 206.153C374.264 203.626 366.483 200.292 366.862 199.054C369.579 190.981 373.269 183.269 377.852 176.089C374.997 177.834 372.2 179.67 369.464 181.596C368.403 140.922 368.429 98.9843 365.978 58.4867H372.521C373.658 58.4867 373.582 55.5561 372.521 55.5561H365.7C350.062 52.7771 334.424 50.0234 318.861 46.7896C294.633 41.7369 269.976 35.5726 245.774 31.0504V28.044C245.774 27.3872 243.096 27.3114 243.096 28.044V30.8483C208.712 39.7916 173.899 47.2697 139.287 54.9245C134.861 55.664 130.476 56.6338 126.15 57.8299L117.737 58.0067C116.803 58.0067 116.828 60.5331 117.737 60.5331H126.479C125.216 128.189 125.089 195.795 124.559 263.4C124.559 264.865 123.902 276.335 125.19 276.335C139.742 276.638 242.06 276.335 242.06 276.335C242.06 343.132 241.976 409.938 241.807 476.751C221.217 487.64 192.922 502.824 188.198 505.628C187.339 505.855 114.352 505.628 104.979 505.855C104.424 505.855 104.424 506.916 104.979 506.916C117.232 507.346 481.736 507.523 481.736 507.523C482.747 507.523 482.949 505.83 481.938 505.83H465.214C464.65 500.974 463.678 496.173 462.308 491.48C456.554 492.061 450.757 492.061 445.003 491.48C440.986 492.92 425.12 499.059 424.489 505.754H406.476C406.045 501.07 405.148 496.441 403.798 491.935C397.603 493.368 391.179 493.514 384.926 492.364C382.223 493.324 366.812 498.908 365.675 505.805H302.844C301.328 504.289 247.138 477.838 246.228 477.535V276.411H347.434C346.525 289.043 346.146 308.849 346.727 309.102C372.774 320.193 397.835 315.746 401.019 307.384C394.905 298.971 395.385 276.663 395.435 272.47C395.92 273.245 396.488 273.965 397.128 274.617C396.8 282.196 396.8 305.59 407.006 312.336C417.819 319.511 453.087 320.193 468.371 316.327C468.523 309.102 468.169 299.754 467.841 294.879C454.4 293.81 441.063 291.698 427.95 288.563C426.56 288.259 416.985 286.491 416.834 285.354C416.682 284.217 416.505 282.676 416.404 281.312L411.351 280.175C411.331 273.751 411.974 267.342 413.272 261.051L417.162 260.899C417.364 259.585 417.162 257.185 418.703 257.185C422.424 255.958 426.222 254.979 430.072 254.255C436.522 252.89 442.956 251.585 449.373 250.339C447.712 243.535 446.613 236.606 446.089 229.623C446.089 228.814 447.251 228.612 447.327 229.42C448.155 236.372 449.455 243.26 451.217 250.036C458.589 248.496 466.047 247.408 473.551 246.777C473.681 246.804 473.798 246.876 473.882 246.979C473.965 247.083 474.011 247.212 474.011 247.345C474.011 247.478 473.965 247.607 473.882 247.711C473.798 247.814 473.681 247.886 473.551 247.913C455.512 249.353 436.918 254.255 419.234 258.448C417.69 267.073 417.24 275.859 417.895 284.596C429.157 287.554 440.578 289.873 452.102 291.544C470.898 293.843 498.713 298.415 502.629 272.47C508.844 233.791 478.401 188.165 443.765 172.451ZM241.807 505.678H195.448C210.834 497.266 226.396 489.712 241.934 480.97L241.807 505.678ZM357.287 55.5056L246.127 56.6425C246.127 48.4318 245.95 41.4843 245.799 33.2231C281.8 41.4843 320.756 49.0634 357.287 55.5056ZM243.02 33.3999C242.868 41.5853 242.717 48.5581 242.616 56.693C205.301 57.0467 170.21 57.1477 132.896 57.8299C170.412 50.5034 243.02 33.3999 243.02 33.3999ZM295.467 505.83H245.976V481.223C260.654 489.636 279.905 498.68 295.467 505.704V505.83ZM364.26 205.951C354.155 226.97 349.38 251.627 347.536 274.895C274.271 274.895 199.592 273.127 126.529 274.718C126.959 269.236 126.15 260.192 126.201 254.305C126.706 189.681 128.853 125.461 128.601 60.7352C158.614 60.7352 363.805 58.5625 363.805 58.5625C365.195 96.8622 367.898 180.914 368.075 182.733C353.725 192.995 340.818 205.138 329.699 218.835C334.477 219.701 339.195 220.874 343.822 222.347C343.976 222.414 344.099 222.538 344.165 222.693C344.231 222.848 344.235 223.023 344.175 223.18C344.119 223.321 344.014 223.436 343.88 223.506C343.745 223.576 343.59 223.594 343.443 223.559C333.868 221.286 298.827 213.858 282.81 215.601C282.431 215.601 282.507 216.258 282.633 217.041C281.137 216.735 279.603 216.667 278.086 216.839C273.665 210.877 268.991 204.207 261.336 209.26C257.925 202.843 228.67 146.884 227.533 146.783C226.118 144.712 224.476 146.783 225.411 148.526L258.128 214.464C255.601 216.637 255.222 219.997 257.37 220.705C256.056 223.433 257.875 226.667 258.784 226.288C257.799 231.341 265.302 236.014 268.662 235.383C269.117 236.242 271.189 240.663 272.073 240.612C272.56 240.994 273.163 241.195 273.782 241.182C274.4 241.169 274.995 240.942 275.465 240.541C275.935 240.139 276.251 239.587 276.361 238.978C276.47 238.37 276.366 237.742 276.065 237.202L278.187 238.339C277.581 239.349 277.227 239.88 277.404 240.082C287.838 252.259 313.758 267.341 323.687 268.882C331.72 270.12 341.169 270.373 345.893 269.034C348.066 248.242 353.043 223.812 363.073 205.218C363.11 205.14 363.163 205.07 363.228 205.012C363.293 204.954 363.369 204.91 363.451 204.882C363.534 204.853 363.621 204.842 363.707 204.847C363.794 204.853 363.879 204.876 363.957 204.915C364.039 204.952 364.112 205.006 364.172 205.073C364.232 205.14 364.277 205.219 364.306 205.304C364.334 205.389 364.345 205.479 364.337 205.569C364.329 205.658 364.303 205.745 364.26 205.824V205.951ZM269.471 221.69C269.309 221.383 269.07 221.124 268.778 220.938C268.485 220.752 268.15 220.646 267.803 220.629C268.086 220.451 268.327 220.215 268.51 219.936C268.693 219.657 268.814 219.342 268.865 219.012C269.825 220.048 270.102 219.366 269.825 219.012C268.511 217.117 267.298 211.862 266.237 212.342C265.252 211.989 262.22 212.999 260.553 212.848C259.896 212.848 259.391 212.418 259.896 211.711C261.804 209.631 264.433 208.357 267.248 208.148C270.987 208.805 275.61 215.071 277.581 217.9C279.778 223.761 276.065 232.73 274.549 234.221L269.218 223.837C269.454 223.537 269.602 223.178 269.647 222.799C269.692 222.42 269.631 222.036 269.471 221.69ZM258.759 212.696L226.093 147.465C226.093 145.949 227.18 147.263 227.66 148.046C230.489 153.731 260.502 209.942 260.502 209.942C260.011 210.226 259.595 210.625 259.292 211.105C258.988 211.584 258.805 212.13 258.759 212.696ZM259.593 214.818C261.083 214.035 265.353 212.746 266.414 214.667C266.54 215.273 266.667 215.854 266.768 216.46C265.095 216.152 263.37 216.32 261.789 216.946C260.207 217.571 258.834 218.628 257.824 219.997C256.283 218.229 257.799 215.702 259.593 214.818ZM258.077 221.614C259.012 219.088 264.418 216.107 266.869 217.597C269.319 219.088 266.187 220.123 265.732 220.755C264.243 220.856 262.815 221.387 261.622 222.284C260.429 223.181 259.522 224.405 259.012 225.808C258.472 225.271 258.098 224.59 257.932 223.847C257.766 223.104 257.817 222.329 258.077 221.614ZM263.66 222.296C264.721 221.892 270.052 220.603 268.283 223.433C265.757 223.66 263.61 225.58 264.873 228.056C265.934 230.128 267.02 232.199 268.132 234.246C260.982 233.463 255.702 225.252 263.66 222.296ZM265.429 226.136C265.683 225.66 266.043 225.249 266.481 224.934C266.919 224.619 267.423 224.408 267.955 224.317C268.89 226.136 275.231 237.934 275.231 238.869C275.231 239.804 273.159 240.587 272.705 239.728C270.145 235.265 267.702 230.734 265.378 226.136H265.429ZM274.953 234.877C278.869 231.997 280.006 223.079 278.869 217.673L283.037 218.279C283.636 224.92 282.162 231.584 278.818 237.353C278.01 236.848 275.282 235.635 274.903 234.877H274.953ZM410.594 277.143C407.183 276.941 403.747 277.649 400.059 275.476C397.33 273.859 394.526 270.423 395.435 267.215C396.446 268.579 396.951 267.392 396.572 266.962C395.881 266.21 395.409 265.282 395.208 264.279C395.008 263.277 395.086 262.239 395.435 261.278C396.269 262.971 397.078 261.985 396.774 261.455C395.536 259.156 395.259 255.038 398.214 253.876C397.987 259.686 404.353 260.52 403.899 258.928C403.899 258.928 401.372 247.888 404.227 248.444C405.617 252.183 407.511 260.343 411.806 261.48C410.828 266.641 410.404 271.892 410.543 277.143H410.594Z" fill="#7E3AF2"/>
<path d="M155.883 245.867C175.286 218.077 200.07 175.761 216.289 146.379C216.901 146.757 217.607 146.956 218.327 146.953C219.047 146.949 219.751 146.743 220.359 146.359C220.968 145.974 221.456 145.426 221.768 144.778C222.08 144.129 222.204 143.406 222.125 142.69C241.78 147.743 262.269 150.699 282.126 155.12C282.505 160.4 289.932 158.379 288.795 154.059C305.267 137.436 323.002 119.751 339.095 103.279L339.702 103.532C340.65 103.845 341.683 103.771 342.577 103.326C343.472 102.882 344.154 102.102 344.476 101.157C344.805 100.27 344.781 99.2902 344.408 98.4206C344.035 97.5511 343.342 96.8581 342.473 96.485C341.603 96.1119 340.623 96.0872 339.736 96.416C338.849 96.7448 338.122 97.402 337.706 98.2517C337.348 98.9262 337.197 99.6917 337.274 100.452C337.35 101.211 337.65 101.932 338.135 102.521C321.866 119.018 303.777 135.996 288.341 153.049C287.933 152.488 287.371 152.058 286.724 151.811C285.859 151.498 284.906 151.538 284.07 151.92C283.234 152.303 282.581 152.998 282.252 153.857C272.147 151.811 226.672 141.857 221.923 141.68C220.078 136.223 211.489 140.947 215.202 145.495C196.179 180.005 175.816 211.938 155.024 245.286C154.199 244.889 153.264 244.78 152.369 244.977C151.474 245.174 150.671 245.665 150.089 246.373C149.507 247.08 149.179 247.963 149.157 248.879C149.136 249.795 149.423 250.691 149.972 251.425C153.332 256.2 160.431 249.985 155.883 245.867ZM340.763 79.4808C339.828 79.6071 340.156 80.8956 340.207 81.5272C341.268 92.1884 343.036 79.2534 340.763 79.4808Z" fill="#7E3AF2"/>
<path d="M285.869 128.341C284.328 128.189 285.364 134.202 285.515 135.617C285.524 135.677 285.546 135.734 285.577 135.786C285.609 135.838 285.651 135.883 285.7 135.918C285.75 135.953 285.806 135.978 285.865 135.992C285.925 136.005 285.986 136.006 286.046 135.995C286.143 135.985 286.233 135.941 286.302 135.872C286.37 135.804 286.414 135.713 286.425 135.617C286.399 134.53 287.132 128.568 285.869 128.341ZM286.399 147.945C287.258 136.703 285.01 141.124 285.01 141.276C285.064 143.5 285.259 145.719 285.591 147.92C285.588 148.027 285.627 148.131 285.701 148.209C285.774 148.288 285.875 148.333 285.983 148.337C286.09 148.34 286.194 148.301 286.272 148.227C286.35 148.154 286.396 148.052 286.399 147.945ZM285.616 104.492C284.682 104.618 285.01 105.907 285.086 106.538C286.223 117.199 287.89 104.264 285.616 104.492ZM340.287 89.5357C339.63 95.7253 341.979 96.2811 341.676 91.7083C341.676 90.7231 341.373 89.7378 341.247 88.7525C341.247 88.323 340.438 87.9693 340.287 89.5357ZM315.63 92.5673C320.329 93.0473 330.383 92.7442 330.99 92.7189C334.779 92.7189 334.4 92.7189 334.122 89.0809C334.122 87.1609 333.87 85.064 332.986 85.3166L314.013 84.9124C312.522 84.5082 313.078 86.984 313.154 88.5757C313.305 91.4557 312.295 92.2136 315.63 92.5673ZM314.392 85.9735L332.91 86.5293L333.061 91.3799H314.366L314.392 85.9735ZM285.364 86.4282C285.399 86.5411 285.476 86.6358 285.58 86.6924C285.684 86.749 285.806 86.763 285.919 86.7314C285.994 86.7095 286.062 86.6707 286.119 86.6181C286.176 86.5655 286.22 86.5006 286.248 86.4282C286.634 84.2339 286.685 81.9936 286.399 79.7839C286.367 79.7073 286.319 79.6382 286.259 79.5809C286.198 79.5237 286.127 79.4794 286.049 79.451C285.97 79.4226 285.887 79.4105 285.804 79.4156C285.721 79.4208 285.64 79.4429 285.566 79.4807C285.474 79.5277 285.396 79.5973 285.338 79.6829C284.971 81.8909 284.971 84.1444 285.338 86.3525L285.364 86.4282ZM285.844 92.1631C284.606 92.1631 285.086 94.5631 285.136 95.2453C285.591 104.517 288.218 92.2136 285.844 92.1631ZM184.688 138.825C184.688 139.204 185.37 139.255 186.406 139.255C190.827 139.255 206.794 140.518 207.072 138.749C207.981 138.749 207.653 133.267 207.526 132.206C208.663 129.503 187.063 131.499 185.497 131.372C184.789 131.17 184.461 131.953 184.587 133.115C184.789 135.086 184.587 137.916 184.688 138.825ZM185.774 132.459C192.596 132.459 199.846 132.635 206.642 132.459V138.294C199.518 138.572 192.621 138.294 185.673 138.497C185.809 136.487 185.843 134.472 185.774 132.459ZM151.871 86.9335C151.492 106.715 151.643 210.144 151.694 242.078C151.694 243.088 153.285 243.214 153.285 242.078C153.285 221.563 153.513 118.033 152.856 86.7819C153.614 86.7819 156.266 86.6556 156.797 85.7967C157.328 84.9377 153.614 75.1101 153.058 73.6448C152.856 73.1396 152.199 73.4933 152.098 73.847C150.885 77.8639 149.572 81.805 148.511 85.8724C148.207 87.1104 151.087 86.9588 151.871 86.9335ZM286.576 120.989V118.21C286.576 116.416 284.404 114.951 285.338 121.823C285.591 123.515 286.399 123.515 286.576 120.989ZM217.329 134.657C217.48 135.692 218.946 135.591 218.87 133.722C218.642 127.81 217.303 127.709 217.278 130.665C217.177 131.994 217.177 133.328 217.278 134.657H217.329ZM218.188 87.3377C219.577 87.2114 218.491 80.9208 218.188 79.7586C218.188 79.3292 217.404 79.2281 217.379 79.7586C217.379 82.0324 217.329 84.3061 217.228 86.5798C217.223 86.6989 217.247 86.8173 217.297 86.9255C217.347 87.0336 217.422 87.1284 217.515 87.2023C217.609 87.2761 217.719 87.3269 217.835 87.3504C217.952 87.3739 218.073 87.3696 218.188 87.3377ZM217.303 106.589V109.418C217.303 111.212 219.476 112.627 218.541 105.805C218.188 104.062 217.404 104.214 217.303 106.589ZM218.011 99.3885C219.577 99.5401 218.516 93.5273 218.365 92.0873C218.365 91.9667 218.317 91.851 218.231 91.7657C218.146 91.6805 218.03 91.6326 217.91 91.6326C217.789 91.6326 217.673 91.6805 217.588 91.7657C217.503 91.851 217.455 91.9667 217.455 92.0873C217.455 93.1989 216.748 99.2622 218.011 99.3885Z" fill="#7E3AF2"/>
</svg>
