<svg width="48" height="48" viewBox="0 0 48 48" fill="none" xmlns="http://www.w3.org/2000/svg">
<path d="M39.625 4H38.375C35.9588 4 34 5.95875 34 8.375V39.625C34 42.0412 35.9588 44 38.375 44H39.625C42.0412 44 44 42.0412 44 39.625V8.375C44 5.95875 42.0412 4 39.625 4Z" fill="url(#paint0_linear_340_2448)"/>
<path d="M24.625 21.5H23.375C20.9588 21.5 19 23.4588 19 25.875V39.625C19 42.0412 20.9588 44 23.375 44H24.625C27.0412 44 29 42.0412 29 39.625V25.875C29 23.4588 27.0412 21.5 24.625 21.5Z" fill="url(#paint1_linear_340_2448)"/>
<path d="M9.625 29H8.375C5.95875 29 4 30.9588 4 33.375V39.625C4 42.0412 5.95875 44 8.375 44H9.625C12.0412 44 14 42.0412 14 39.625V33.375C14 30.9588 12.0412 29 9.625 29Z" fill="url(#paint2_linear_340_2448)"/>
<path d="M22.1234 4H13.3733C12.8781 4.00647 12.4049 4.2061 12.0547 4.55633C11.7044 4.90657 11.5048 5.37973 11.4983 5.875C11.5048 6.37027 11.7044 6.84343 12.0547 7.19367C12.4049 7.5439 12.8781 7.74352 13.3733 7.75H17.5983L4.54835 20.8C4.19722 21.1516 4 21.6281 4 22.125C4 22.6219 4.19722 23.0984 4.54835 23.45C4.89991 23.8011 5.37647 23.9984 5.87335 23.9984C6.37023 23.9984 6.84679 23.8011 7.19835 23.45L20.2484 10.4V14.625C20.2484 15.1223 20.4459 15.5992 20.7975 15.9508C21.1492 16.3025 21.6261 16.5 22.1234 16.5C22.6206 16.5 23.0975 16.3025 23.4492 15.9508C23.8008 15.5992 23.9984 15.1223 23.9984 14.625V5.875C23.9919 5.37973 23.7923 4.90657 23.442 4.55633C23.0918 4.2061 22.6186 4.00647 22.1234 4Z" fill="url(#paint3_linear_340_2448)"/>
<defs>
<linearGradient id="paint0_linear_340_2448" x1="39" y1="4" x2="39" y2="44" gradientUnits="userSpaceOnUse">
<stop stop-color="#7E3AF2"/>
<stop offset="1" stop-color="#7E3AF2" stop-opacity="0"/>
</linearGradient>
<linearGradient id="paint1_linear_340_2448" x1="24" y1="21.5" x2="24" y2="44" gradientUnits="userSpaceOnUse">
<stop stop-color="#7E3AF2"/>
<stop offset="1" stop-color="#7E3AF2" stop-opacity="0"/>
</linearGradient>
<linearGradient id="paint2_linear_340_2448" x1="9" y1="29" x2="9" y2="44" gradientUnits="userSpaceOnUse">
<stop stop-color="#7E3AF2"/>
<stop offset="1" stop-color="#7E3AF2" stop-opacity="0"/>
</linearGradient>
<linearGradient id="paint3_linear_340_2448" x1="13.9992" y1="4" x2="13.9992" y2="23.9984" gradientUnits="userSpaceOnUse">
<stop stop-color="#7E3AF2"/>
<stop offset="1" stop-color="#7E3AF2" stop-opacity="0"/>
</linearGradient>
</defs>
</svg>
