<svg width="49" height="48" viewBox="0 0 49 48" fill="none" xmlns="http://www.w3.org/2000/svg">
<path fill-rule="evenodd" clip-rule="evenodd" d="M5.30078 12C5.30078 10.727 5.80649 9.50607 6.70667 8.6059C7.60684 7.70572 8.82774 7.20001 10.1008 7.20001H38.9008C40.1738 7.20001 41.3947 7.70572 42.2949 8.6059C43.1951 9.50607 43.7008 10.727 43.7008 12V16.8C43.7008 18.0731 43.1951 19.2939 42.2949 20.1941C41.3947 21.0943 40.1738 21.6 38.9008 21.6H10.1008C8.82774 21.6 7.60684 21.0943 6.70667 20.1941C5.80649 19.2939 5.30078 18.0731 5.30078 16.8V12ZM38.9008 14.4C38.9008 15.0365 38.6479 15.647 38.1978 16.0971C37.7477 16.5472 37.1373 16.8 36.5008 16.8C35.8643 16.8 35.2538 16.5472 34.8037 16.0971C34.3536 15.647 34.1008 15.0365 34.1008 14.4C34.1008 13.7635 34.3536 13.153 34.8037 12.703C35.2538 12.2529 35.8643 12 36.5008 12C37.1373 12 37.7477 12.2529 38.1978 12.703C38.6479 13.153 38.9008 13.7635 38.9008 14.4ZM5.30078 31.2C5.30078 29.927 5.80649 28.7061 6.70667 27.8059C7.60684 26.9057 8.82774 26.4 10.1008 26.4H38.9008C40.1738 26.4 41.3947 26.9057 42.2949 27.8059C43.1951 28.7061 43.7008 29.927 43.7008 31.2V36C43.7008 37.2731 43.1951 38.4939 42.2949 39.3941C41.3947 40.2943 40.1738 40.8 38.9008 40.8H10.1008C8.82774 40.8 7.60684 40.2943 6.70667 39.3941C5.80649 38.4939 5.30078 37.2731 5.30078 36V31.2ZM38.9008 33.6C38.9008 34.2365 38.6479 34.847 38.1978 35.2971C37.7477 35.7472 37.1373 36 36.5008 36C35.8643 36 35.2538 35.7472 34.8037 35.2971C34.3536 34.847 34.1008 34.2365 34.1008 33.6C34.1008 32.9635 34.3536 32.353 34.8037 31.903C35.2538 31.4529 35.8643 31.2 36.5008 31.2C37.1373 31.2 37.7477 31.4529 38.1978 31.903C38.6479 32.353 38.9008 32.9635 38.9008 33.6Z" fill="url(#paint0_linear_340_2475)"/>
<defs>
<linearGradient id="paint0_linear_340_2475" x1="24.5008" y1="7.20001" x2="24.5008" y2="40.8" gradientUnits="userSpaceOnUse">
<stop stop-color="#7E3AF2"/>
<stop offset="1" stop-color="#7E3AF2" stop-opacity="0"/>
</linearGradient>
</defs>
</svg>
