<svg width="41" height="40" viewBox="0 0 41 40" fill="none" xmlns="http://www.w3.org/2000/svg">
<path d="M20.2561 0.0916852C20.1259 0.033358 19.9771 0.033358 19.847 0.0916853L0.325945 8.84253C0.157123 8.91821 0.0447815 9.06858 0.0364092 9.2534C-0.105422 12.3843 -0.766347 40 20.0515 40C40.8695 40 40.2085 12.3843 40.0667 9.2534C40.0583 9.06858 39.946 8.91821 39.7772 8.84253L20.2561 0.0916852Z" fill="url(#paint0_linear_340_2468)"/>
<path fill-rule="evenodd" clip-rule="evenodd" d="M27.4715 12.116C28.3978 12.785 28.6064 14.0783 27.9374 15.0046L18.9719 27.4184C18.5977 27.9365 18.005 28.2526 17.3663 28.2748C16.7275 28.2969 16.1144 28.0226 15.7052 27.5316L12.2569 23.3936C11.5254 22.5158 11.644 21.2112 12.5218 20.4797C13.3997 19.7482 14.7043 19.8668 15.4358 20.7446L17.1778 22.835L24.5829 12.5819C25.2519 11.6555 26.5452 11.447 27.4715 12.116Z" fill="white"/>
<defs>
<linearGradient id="paint0_linear_340_2468" x1="20.0516" y1="0" x2="20.0516" y2="40" gradientUnits="userSpaceOnUse">
<stop stop-color="#7E3AF2"/>
<stop offset="1" stop-color="#7E3AF2" stop-opacity="0"/>
</linearGradient>
</defs>
</svg>
